<mxfile host="app.diagrams.net" modified="2022-04-07T07:57:20.657Z" agent="5.0 (Windows NT 10.0; Win64; x64) AppleWebKit/537.36 (KHTML, like Gecko) Chrome/100.0.4896.75 Safari/537.36" etag="nt1KMCU5hPIxmRGYTw-D" version="17.4.0" type="github">
  <diagram id="qo_48YLdRMt0Yjb2DwoA" name="Page-1">
    <mxGraphModel dx="1422" dy="794" grid="1" gridSize="10" guides="1" tooltips="1" connect="1" arrows="1" fold="1" page="1" pageScale="1" pageWidth="850" pageHeight="1100" math="0" shadow="0">
      <root>
        <mxCell id="0" />
        <mxCell id="1" parent="0" />
        <mxCell id="5-9y21-28eGrgCkgJ4F6-1" value="" style="curved=1;endArrow=classic;html=1;rounded=0;" edge="1" parent="1">
          <mxGeometry width="50" height="50" relative="1" as="geometry">
            <mxPoint x="420" y="160" as="sourcePoint" />
            <mxPoint x="450" y="240" as="targetPoint" />
            <Array as="points">
              <mxPoint x="425" y="200" />
            </Array>
          </mxGeometry>
        </mxCell>
        <mxCell id="5-9y21-28eGrgCkgJ4F6-2" value="serial.readByte()" style="text;html=1;align=center;verticalAlign=middle;resizable=0;points=[];autosize=1;strokeColor=none;fillColor=none;fontSize=14;fontFamily=Times New Roman;" vertex="1" parent="1">
          <mxGeometry x="360" y="40" width="110" height="20" as="geometry" />
        </mxCell>
        <mxCell id="5-9y21-28eGrgCkgJ4F6-3" value="bool connect()" style="text;html=1;align=center;verticalAlign=middle;resizable=0;points=[];autosize=1;strokeColor=none;fillColor=none;fontSize=14;fontFamily=Times New Roman;" vertex="1" parent="1">
          <mxGeometry x="360" y="100" width="100" height="20" as="geometry" />
        </mxCell>
        <mxCell id="5-9y21-28eGrgCkgJ4F6-4" value="Bluetooth" style="swimlane;" vertex="1" parent="1">
          <mxGeometry x="120" y="255" width="200" height="220" as="geometry" />
        </mxCell>
        <mxCell id="5-9y21-28eGrgCkgJ4F6-5" value="bool verified" style="text;html=1;align=center;verticalAlign=middle;resizable=0;points=[];autosize=1;strokeColor=none;fillColor=none;" vertex="1" parent="5-9y21-28eGrgCkgJ4F6-4">
          <mxGeometry x="25" y="55" width="80" height="20" as="geometry" />
        </mxCell>
        <mxCell id="5-9y21-28eGrgCkgJ4F6-6" value="input:" style="text;html=1;align=center;verticalAlign=middle;resizable=0;points=[];autosize=1;strokeColor=none;fillColor=none;fontSize=14;fontFamily=Times New Roman;" vertex="1" parent="5-9y21-28eGrgCkgJ4F6-4">
          <mxGeometry x="15" y="35" width="50" height="20" as="geometry" />
        </mxCell>
        <mxCell id="5-9y21-28eGrgCkgJ4F6-7" value="" style="group" vertex="1" connectable="0" parent="5-9y21-28eGrgCkgJ4F6-4">
          <mxGeometry x="15" y="155" width="140" height="40" as="geometry" />
        </mxCell>
        <mxCell id="5-9y21-28eGrgCkgJ4F6-8" value="bool connect()" style="text;html=1;align=center;verticalAlign=middle;resizable=0;points=[];autosize=1;strokeColor=none;fillColor=none;" vertex="1" parent="5-9y21-28eGrgCkgJ4F6-7">
          <mxGeometry y="20" width="90" height="20" as="geometry" />
        </mxCell>
        <mxCell id="5-9y21-28eGrgCkgJ4F6-9" value="void await_connection()" style="text;html=1;align=center;verticalAlign=middle;resizable=0;points=[];autosize=1;strokeColor=none;fillColor=none;" vertex="1" parent="5-9y21-28eGrgCkgJ4F6-7">
          <mxGeometry width="140" height="20" as="geometry" />
        </mxCell>
        <mxCell id="5-9y21-28eGrgCkgJ4F6-10" value="bool LED (zavor)" style="text;html=1;align=center;verticalAlign=middle;resizable=0;points=[];autosize=1;strokeColor=none;fillColor=none;fontSize=14;fontFamily=Times New Roman;" vertex="1" parent="5-9y21-28eGrgCkgJ4F6-4">
          <mxGeometry x="25" y="100" width="120" height="20" as="geometry" />
        </mxCell>
        <mxCell id="5-9y21-28eGrgCkgJ4F6-11" value="transmission to cloud" style="text;html=1;align=center;verticalAlign=middle;resizable=0;points=[];autosize=1;strokeColor=none;fillColor=none;fontSize=14;fontFamily=Times New Roman;" vertex="1" parent="5-9y21-28eGrgCkgJ4F6-4">
          <mxGeometry x="10" y="195" width="140" height="20" as="geometry" />
        </mxCell>
        <mxCell id="5-9y21-28eGrgCkgJ4F6-12" value="ESP" style="swimlane;" vertex="1" parent="1">
          <mxGeometry x="560" y="260" width="200" height="120" as="geometry" />
        </mxCell>
        <mxCell id="5-9y21-28eGrgCkgJ4F6-13" value="bool connect()" style="text;html=1;align=center;verticalAlign=middle;resizable=0;points=[];autosize=1;strokeColor=none;fillColor=none;" vertex="1" parent="5-9y21-28eGrgCkgJ4F6-12">
          <mxGeometry x="50" y="34" width="90" height="20" as="geometry" />
        </mxCell>
        <mxCell id="5-9y21-28eGrgCkgJ4F6-14" value="Temperature sensor" style="swimlane;" vertex="1" parent="1">
          <mxGeometry x="340" y="260" width="200" height="220" as="geometry" />
        </mxCell>
        <mxCell id="5-9y21-28eGrgCkgJ4F6-15" value="float temp" style="text;html=1;align=center;verticalAlign=middle;resizable=0;points=[];autosize=1;strokeColor=none;fillColor=none;" vertex="1" parent="5-9y21-28eGrgCkgJ4F6-14">
          <mxGeometry x="35" y="110" width="70" height="20" as="geometry" />
        </mxCell>
        <mxCell id="5-9y21-28eGrgCkgJ4F6-16" value="int voltage" style="text;html=1;align=center;verticalAlign=middle;resizable=0;points=[];autosize=1;strokeColor=none;fillColor=none;fontSize=14;fontFamily=Times New Roman;" vertex="1" parent="5-9y21-28eGrgCkgJ4F6-14">
          <mxGeometry x="30" y="60" width="80" height="20" as="geometry" />
        </mxCell>
        <mxCell id="5-9y21-28eGrgCkgJ4F6-17" value="output:" style="text;html=1;align=center;verticalAlign=middle;resizable=0;points=[];autosize=1;strokeColor=none;fillColor=none;fontSize=14;fontFamily=Times New Roman;" vertex="1" parent="5-9y21-28eGrgCkgJ4F6-14">
          <mxGeometry x="10" y="90" width="60" height="20" as="geometry" />
        </mxCell>
        <mxCell id="5-9y21-28eGrgCkgJ4F6-18" value="float volt_to_temp()" style="text;html=1;align=center;verticalAlign=middle;resizable=0;points=[];autosize=1;strokeColor=none;fillColor=none;fontSize=14;fontFamily=Times New Roman;" vertex="1" parent="5-9y21-28eGrgCkgJ4F6-14">
          <mxGeometry x="10" y="160" width="130" height="20" as="geometry" />
        </mxCell>
        <mxCell id="5-9y21-28eGrgCkgJ4F6-19" value="transmission to cloud" style="text;html=1;align=center;verticalAlign=middle;resizable=0;points=[];autosize=1;strokeColor=none;fillColor=none;fontSize=14;fontFamily=Times New Roman;" vertex="1" parent="5-9y21-28eGrgCkgJ4F6-14">
          <mxGeometry x="10" y="190" width="140" height="20" as="geometry" />
        </mxCell>
        <mxCell id="5-9y21-28eGrgCkgJ4F6-20" value="" style="curved=1;endArrow=classic;html=1;rounded=0;" edge="1" parent="1">
          <mxGeometry width="50" height="50" relative="1" as="geometry">
            <mxPoint x="340" y="90" as="sourcePoint" />
            <mxPoint x="210" y="240" as="targetPoint" />
            <Array as="points">
              <mxPoint x="260" y="210" />
            </Array>
          </mxGeometry>
        </mxCell>
        <mxCell id="5-9y21-28eGrgCkgJ4F6-21" value="" style="curved=1;endArrow=classic;html=1;rounded=0;" edge="1" parent="1">
          <mxGeometry width="50" height="50" relative="1" as="geometry">
            <mxPoint x="570" y="110" as="sourcePoint" />
            <mxPoint x="640" y="230" as="targetPoint" />
            <Array as="points">
              <mxPoint x="620" y="110" />
            </Array>
          </mxGeometry>
        </mxCell>
        <mxCell id="5-9y21-28eGrgCkgJ4F6-22" value="bool state_LED" style="text;html=1;align=center;verticalAlign=middle;resizable=0;points=[];autosize=1;strokeColor=none;fillColor=none;fontSize=14;fontFamily=Times New Roman;" vertex="1" parent="1">
          <mxGeometry x="175" y="570" width="100" height="20" as="geometry" />
        </mxCell>
        <mxCell id="5-9y21-28eGrgCkgJ4F6-23" value="input:" style="text;html=1;align=center;verticalAlign=middle;resizable=0;points=[];autosize=1;strokeColor=none;fillColor=none;fontSize=14;fontFamily=Times New Roman;" vertex="1" parent="1">
          <mxGeometry x="425" y="550" width="50" height="20" as="geometry" />
        </mxCell>
        <mxCell id="5-9y21-28eGrgCkgJ4F6-24" value="float temp 2" style="text;html=1;align=center;verticalAlign=middle;resizable=0;points=[];autosize=1;strokeColor=none;fillColor=none;fontSize=14;fontFamily=Times New Roman;" vertex="1" parent="1">
          <mxGeometry x="475" y="580" width="80" height="20" as="geometry" />
        </mxCell>
        <mxCell id="5-9y21-28eGrgCkgJ4F6-25" value="float temp1" style="text;html=1;align=center;verticalAlign=middle;resizable=0;points=[];autosize=1;strokeColor=none;fillColor=none;fontSize=14;fontFamily=Times New Roman;" vertex="1" parent="1">
          <mxGeometry x="475" y="560" width="80" height="20" as="geometry" />
        </mxCell>
        <mxCell id="5-9y21-28eGrgCkgJ4F6-26" value="" style="shape=table;html=1;whiteSpace=wrap;startSize=0;container=1;collapsible=0;childLayout=tableLayout;" vertex="1" parent="1">
          <mxGeometry x="870" y="160" width="370" height="134" as="geometry" />
        </mxCell>
        <mxCell id="5-9y21-28eGrgCkgJ4F6-27" value="" style="shape=tableRow;horizontal=0;startSize=0;swimlaneHead=0;swimlaneBody=0;top=0;left=0;bottom=0;right=0;collapsible=0;dropTarget=0;fillColor=none;points=[[0,0.5],[1,0.5]];portConstraint=eastwest;" vertex="1" parent="5-9y21-28eGrgCkgJ4F6-26">
          <mxGeometry width="370" height="27" as="geometry" />
        </mxCell>
        <mxCell id="5-9y21-28eGrgCkgJ4F6-28" value="Schedule" style="shape=partialRectangle;html=1;whiteSpace=wrap;connectable=0;fillColor=none;top=0;left=0;bottom=0;right=0;overflow=hidden;rowspan=1;colspan=2;" vertex="1" parent="5-9y21-28eGrgCkgJ4F6-27">
          <mxGeometry width="177" height="27" as="geometry">
            <mxRectangle width="88" height="27" as="alternateBounds" />
          </mxGeometry>
        </mxCell>
        <mxCell id="5-9y21-28eGrgCkgJ4F6-29" value="Schedule" style="shape=partialRectangle;html=1;whiteSpace=wrap;connectable=0;fillColor=none;top=0;left=0;bottom=0;right=0;overflow=hidden;" vertex="1" visible="0" parent="5-9y21-28eGrgCkgJ4F6-27">
          <mxGeometry x="88" width="89" height="27" as="geometry">
            <mxRectangle width="89" height="27" as="alternateBounds" />
          </mxGeometry>
        </mxCell>
        <mxCell id="5-9y21-28eGrgCkgJ4F6-30" value="Current Data" style="shape=partialRectangle;html=1;whiteSpace=wrap;connectable=0;fillColor=none;top=0;left=0;bottom=0;right=0;overflow=hidden;" vertex="1" parent="5-9y21-28eGrgCkgJ4F6-27">
          <mxGeometry x="177" width="105" height="27" as="geometry">
            <mxRectangle width="105" height="27" as="alternateBounds" />
          </mxGeometry>
        </mxCell>
        <mxCell id="5-9y21-28eGrgCkgJ4F6-31" value="Difference" style="shape=partialRectangle;html=1;whiteSpace=wrap;connectable=0;fillColor=none;top=0;left=0;bottom=0;right=0;overflow=hidden;" vertex="1" parent="5-9y21-28eGrgCkgJ4F6-27">
          <mxGeometry x="282" width="88" height="27" as="geometry">
            <mxRectangle width="88" height="27" as="alternateBounds" />
          </mxGeometry>
        </mxCell>
        <mxCell id="5-9y21-28eGrgCkgJ4F6-32" value="" style="shape=tableRow;horizontal=0;startSize=0;swimlaneHead=0;swimlaneBody=0;top=0;left=0;bottom=0;right=0;collapsible=0;dropTarget=0;fillColor=none;points=[[0,0.5],[1,0.5]];portConstraint=eastwest;" vertex="1" parent="5-9y21-28eGrgCkgJ4F6-26">
          <mxGeometry y="27" width="370" height="26" as="geometry" />
        </mxCell>
        <mxCell id="5-9y21-28eGrgCkgJ4F6-33" value="10" style="shape=partialRectangle;html=1;whiteSpace=wrap;connectable=0;fillColor=none;top=0;left=0;bottom=0;right=0;overflow=hidden;" vertex="1" parent="5-9y21-28eGrgCkgJ4F6-32">
          <mxGeometry width="88" height="26" as="geometry">
            <mxRectangle width="88" height="26" as="alternateBounds" />
          </mxGeometry>
        </mxCell>
        <mxCell id="5-9y21-28eGrgCkgJ4F6-34" value="22" style="shape=partialRectangle;html=1;whiteSpace=wrap;connectable=0;fillColor=none;top=0;left=0;bottom=0;right=0;overflow=hidden;" vertex="1" parent="5-9y21-28eGrgCkgJ4F6-32">
          <mxGeometry x="88" width="89" height="26" as="geometry">
            <mxRectangle width="89" height="26" as="alternateBounds" />
          </mxGeometry>
        </mxCell>
        <mxCell id="5-9y21-28eGrgCkgJ4F6-35" value="21" style="shape=partialRectangle;html=1;whiteSpace=wrap;connectable=0;fillColor=none;top=0;left=0;bottom=0;right=0;overflow=hidden;" vertex="1" parent="5-9y21-28eGrgCkgJ4F6-32">
          <mxGeometry x="177" width="105" height="26" as="geometry">
            <mxRectangle width="105" height="26" as="alternateBounds" />
          </mxGeometry>
        </mxCell>
        <mxCell id="5-9y21-28eGrgCkgJ4F6-36" value="1" style="shape=partialRectangle;html=1;whiteSpace=wrap;connectable=0;fillColor=none;top=0;left=0;bottom=0;right=0;overflow=hidden;" vertex="1" parent="5-9y21-28eGrgCkgJ4F6-32">
          <mxGeometry x="282" width="88" height="26" as="geometry">
            <mxRectangle width="88" height="26" as="alternateBounds" />
          </mxGeometry>
        </mxCell>
        <mxCell id="5-9y21-28eGrgCkgJ4F6-37" value="" style="shape=tableRow;horizontal=0;startSize=0;swimlaneHead=0;swimlaneBody=0;top=0;left=0;bottom=0;right=0;collapsible=0;dropTarget=0;fillColor=none;points=[[0,0.5],[1,0.5]];portConstraint=eastwest;" vertex="1" parent="5-9y21-28eGrgCkgJ4F6-26">
          <mxGeometry y="53" width="370" height="27" as="geometry" />
        </mxCell>
        <mxCell id="5-9y21-28eGrgCkgJ4F6-38" value="11" style="shape=partialRectangle;html=1;whiteSpace=wrap;connectable=0;fillColor=none;top=0;left=0;bottom=0;right=0;overflow=hidden;" vertex="1" parent="5-9y21-28eGrgCkgJ4F6-37">
          <mxGeometry width="88" height="27" as="geometry">
            <mxRectangle width="88" height="27" as="alternateBounds" />
          </mxGeometry>
        </mxCell>
        <mxCell id="5-9y21-28eGrgCkgJ4F6-39" value="22" style="shape=partialRectangle;html=1;whiteSpace=wrap;connectable=0;fillColor=none;top=0;left=0;bottom=0;right=0;overflow=hidden;" vertex="1" parent="5-9y21-28eGrgCkgJ4F6-37">
          <mxGeometry x="88" width="89" height="27" as="geometry">
            <mxRectangle width="89" height="27" as="alternateBounds" />
          </mxGeometry>
        </mxCell>
        <mxCell id="5-9y21-28eGrgCkgJ4F6-40" value="22" style="shape=partialRectangle;html=1;whiteSpace=wrap;connectable=0;fillColor=none;top=0;left=0;bottom=0;right=0;overflow=hidden;pointerEvents=1;" vertex="1" parent="5-9y21-28eGrgCkgJ4F6-37">
          <mxGeometry x="177" width="105" height="27" as="geometry">
            <mxRectangle width="105" height="27" as="alternateBounds" />
          </mxGeometry>
        </mxCell>
        <mxCell id="5-9y21-28eGrgCkgJ4F6-41" value="0" style="shape=partialRectangle;html=1;whiteSpace=wrap;connectable=0;fillColor=none;top=0;left=0;bottom=0;right=0;overflow=hidden;pointerEvents=1;" vertex="1" parent="5-9y21-28eGrgCkgJ4F6-37">
          <mxGeometry x="282" width="88" height="27" as="geometry">
            <mxRectangle width="88" height="27" as="alternateBounds" />
          </mxGeometry>
        </mxCell>
        <mxCell id="5-9y21-28eGrgCkgJ4F6-42" style="shape=tableRow;horizontal=0;startSize=0;swimlaneHead=0;swimlaneBody=0;top=0;left=0;bottom=0;right=0;collapsible=0;dropTarget=0;fillColor=none;points=[[0,0.5],[1,0.5]];portConstraint=eastwest;" vertex="1" parent="5-9y21-28eGrgCkgJ4F6-26">
          <mxGeometry y="80" width="370" height="27" as="geometry" />
        </mxCell>
        <mxCell id="5-9y21-28eGrgCkgJ4F6-43" value="12" style="shape=partialRectangle;html=1;whiteSpace=wrap;connectable=0;fillColor=none;top=0;left=0;bottom=0;right=0;overflow=hidden;" vertex="1" parent="5-9y21-28eGrgCkgJ4F6-42">
          <mxGeometry width="88" height="27" as="geometry">
            <mxRectangle width="88" height="27" as="alternateBounds" />
          </mxGeometry>
        </mxCell>
        <mxCell id="5-9y21-28eGrgCkgJ4F6-44" value="23" style="shape=partialRectangle;html=1;whiteSpace=wrap;connectable=0;fillColor=none;top=0;left=0;bottom=0;right=0;overflow=hidden;" vertex="1" parent="5-9y21-28eGrgCkgJ4F6-42">
          <mxGeometry x="88" width="89" height="27" as="geometry">
            <mxRectangle width="89" height="27" as="alternateBounds" />
          </mxGeometry>
        </mxCell>
        <mxCell id="5-9y21-28eGrgCkgJ4F6-45" value="22" style="shape=partialRectangle;html=1;whiteSpace=wrap;connectable=0;fillColor=none;top=0;left=0;bottom=0;right=0;overflow=hidden;pointerEvents=1;" vertex="1" parent="5-9y21-28eGrgCkgJ4F6-42">
          <mxGeometry x="177" width="105" height="27" as="geometry">
            <mxRectangle width="105" height="27" as="alternateBounds" />
          </mxGeometry>
        </mxCell>
        <mxCell id="5-9y21-28eGrgCkgJ4F6-46" value="1" style="shape=partialRectangle;html=1;whiteSpace=wrap;connectable=0;fillColor=none;top=0;left=0;bottom=0;right=0;overflow=hidden;pointerEvents=1;" vertex="1" parent="5-9y21-28eGrgCkgJ4F6-42">
          <mxGeometry x="282" width="88" height="27" as="geometry">
            <mxRectangle width="88" height="27" as="alternateBounds" />
          </mxGeometry>
        </mxCell>
        <mxCell id="5-9y21-28eGrgCkgJ4F6-47" style="shape=tableRow;horizontal=0;startSize=0;swimlaneHead=0;swimlaneBody=0;top=0;left=0;bottom=0;right=0;collapsible=0;dropTarget=0;fillColor=none;points=[[0,0.5],[1,0.5]];portConstraint=eastwest;" vertex="1" parent="5-9y21-28eGrgCkgJ4F6-26">
          <mxGeometry y="107" width="370" height="27" as="geometry" />
        </mxCell>
        <mxCell id="5-9y21-28eGrgCkgJ4F6-48" value="13" style="shape=partialRectangle;html=1;whiteSpace=wrap;connectable=0;fillColor=none;top=0;left=0;bottom=0;right=0;overflow=hidden;" vertex="1" parent="5-9y21-28eGrgCkgJ4F6-47">
          <mxGeometry width="88" height="27" as="geometry">
            <mxRectangle width="88" height="27" as="alternateBounds" />
          </mxGeometry>
        </mxCell>
        <mxCell id="5-9y21-28eGrgCkgJ4F6-49" value="24" style="shape=partialRectangle;html=1;whiteSpace=wrap;connectable=0;fillColor=none;top=0;left=0;bottom=0;right=0;overflow=hidden;" vertex="1" parent="5-9y21-28eGrgCkgJ4F6-47">
          <mxGeometry x="88" width="89" height="27" as="geometry">
            <mxRectangle width="89" height="27" as="alternateBounds" />
          </mxGeometry>
        </mxCell>
        <mxCell id="5-9y21-28eGrgCkgJ4F6-50" value="25" style="shape=partialRectangle;html=1;whiteSpace=wrap;connectable=0;fillColor=none;top=0;left=0;bottom=0;right=0;overflow=hidden;pointerEvents=1;" vertex="1" parent="5-9y21-28eGrgCkgJ4F6-47">
          <mxGeometry x="177" width="105" height="27" as="geometry">
            <mxRectangle width="105" height="27" as="alternateBounds" />
          </mxGeometry>
        </mxCell>
        <mxCell id="5-9y21-28eGrgCkgJ4F6-51" value="-1" style="shape=partialRectangle;html=1;whiteSpace=wrap;connectable=0;fillColor=none;top=0;left=0;bottom=0;right=0;overflow=hidden;pointerEvents=1;" vertex="1" parent="5-9y21-28eGrgCkgJ4F6-47">
          <mxGeometry x="282" width="88" height="27" as="geometry">
            <mxRectangle width="88" height="27" as="alternateBounds" />
          </mxGeometry>
        </mxCell>
        <mxCell id="5-9y21-28eGrgCkgJ4F6-52" value="&lt;b&gt;&lt;font face=&quot;Times New Roman&quot; style=&quot;font-size: 14px&quot;&gt;Exemplu de reglare cu histerezis&lt;/font&gt;&lt;/b&gt;" style="text;html=1;strokeColor=none;fillColor=none;align=center;verticalAlign=middle;whiteSpace=wrap;rounded=0;" vertex="1" parent="1">
          <mxGeometry x="1000" y="120" width="200" height="30" as="geometry" />
        </mxCell>
        <mxCell id="5-9y21-28eGrgCkgJ4F6-53" value="" style="swimlane;startSize=0;fontFamily=Times New Roman;fontSize=14;" vertex="1" parent="1">
          <mxGeometry x="870" y="310" width="490" height="110" as="geometry" />
        </mxCell>
        <mxCell id="5-9y21-28eGrgCkgJ4F6-54" value="&lt;table class=&quot;highlight tab-size js-file-line-container js-code-nav-container js-tagsearch-file&quot; style=&quot;padding: 0px ; margin: 0px ; font-family: , , &amp;#34;sf mono&amp;#34; , &amp;#34;menlo&amp;#34; , &amp;#34;consolas&amp;#34; , &amp;#34;liberation mono&amp;#34; , monospace ; font-size: 12px ; line-height: 1.4 ; color: rgb(51 , 51 , 51) ; border: 0px ; border-collapse: collapse ; text-align: left&quot;&gt;&lt;tbody&gt;&lt;tr&gt;&lt;td id=&quot;file-arduino_bluetooth_part2-ino-L15&quot; class=&quot;blob-num js-line-number js-code-nav-line-number js-blob-rnum&quot; style=&quot;position: relative ; width: 13.2031px ; min-width: inherit ; line-height: 20px ; text-align: right ; vertical-align: top ; cursor: pointer ; background: rgba(0 , 0 , 0 , 0) ; padding: 1px 10px&quot;&gt;&lt;/td&gt;&lt;td id=&quot;file-arduino_bluetooth_part2-ino-LC15&quot; class=&quot;blob-code blob-code-inner js-file-line&quot; style=&quot;position: relative ; line-height: 20px ; vertical-align: top ; overflow: visible ; overflow-wrap: normal ; background: rgba(0 , 0 , 0 , 0) ; border: 0px ; padding: 1px 10px&quot;&gt;  &lt;span class=&quot;pl-k&quot; style=&quot;color: rgb(215 , 58 , 73)&quot;&gt;if&lt;/span&gt; (Serial.&lt;span class=&quot;pl-c1&quot; style=&quot;color: rgb(0 , 92 , 197)&quot;&gt;available&lt;/span&gt;() &amp;gt; &lt;span class=&quot;pl-c1&quot; style=&quot;color: rgb(0 , 92 , 197)&quot;&gt;0&lt;/span&gt;){ &lt;span class=&quot;pl-c&quot; style=&quot;color: rgb(106 , 115 , 125)&quot;&gt;&lt;span class=&quot;pl-c&quot;&gt;//&lt;/span&gt; Check if there is data coming&lt;/span&gt;&lt;/td&gt;&lt;/tr&gt;&lt;tr style=&quot;background-color: transparent&quot;&gt;&lt;td id=&quot;file-arduino_bluetooth_part2-ino-L16&quot; class=&quot;blob-num js-line-number js-code-nav-line-number js-blob-rnum&quot; style=&quot;position: relative ; width: 13.2031px ; min-width: inherit ; line-height: 20px ; text-align: right ; vertical-align: top ; cursor: pointer ; background: rgba(0 , 0 , 0 , 0) ; padding: 1px 10px&quot;&gt;&lt;/td&gt;&lt;td id=&quot;file-arduino_bluetooth_part2-ino-LC16&quot; class=&quot;blob-code blob-code-inner js-file-line&quot; style=&quot;position: relative ; line-height: 20px ; vertical-align: top ; overflow: visible ; overflow-wrap: normal ; background: rgba(0 , 0 , 0 , 0) ; border: 0px ; padding: 1px 10px&quot;&gt;    msg = Serial.&lt;span class=&quot;pl-c1&quot; style=&quot;color: rgb(0 , 92 , 197)&quot;&gt;readString&lt;/span&gt;(); &lt;span class=&quot;pl-c&quot; style=&quot;color: rgb(106 , 115 , 125)&quot;&gt;&lt;span class=&quot;pl-c&quot;&gt;//&lt;/span&gt; Read the message as String&lt;/span&gt;&lt;/td&gt;&lt;/tr&gt;&lt;tr&gt;&lt;td id=&quot;file-arduino_bluetooth_part2-ino-L17&quot; class=&quot;blob-num js-line-number js-code-nav-line-number js-blob-rnum&quot; style=&quot;position: relative ; width: 13.2031px ; min-width: inherit ; line-height: 20px ; text-align: right ; vertical-align: top ; cursor: pointer ; background: rgba(0 , 0 , 0 , 0) ; padding: 1px 10px&quot;&gt;&lt;/td&gt;&lt;td id=&quot;file-arduino_bluetooth_part2-ino-LC17&quot; class=&quot;blob-code blob-code-inner js-file-line&quot; style=&quot;position: relative ; line-height: 20px ; vertical-align: top ; overflow: visible ; overflow-wrap: normal ; background: rgba(0 , 0 , 0 , 0) ; border: 0px ; padding: 1px 10px&quot;&gt;    Serial.&lt;span class=&quot;pl-c1&quot; style=&quot;color: rgb(0 , 92 , 197)&quot;&gt;println&lt;/span&gt;(&lt;span class=&quot;pl-s&quot; style=&quot;color: rgb(3 , 47 , 98)&quot;&gt;&lt;span class=&quot;pl-pds&quot;&gt;&quot;&lt;/span&gt;Android Command: &lt;span class=&quot;pl-pds&quot;&gt;&quot;&lt;/span&gt;&lt;/span&gt; + msg);&lt;/td&gt;&lt;/tr&gt;&lt;tr style=&quot;background-color: transparent&quot;&gt;&lt;td id=&quot;file-arduino_bluetooth_part2-ino-L18&quot; class=&quot;blob-num js-line-number js-code-nav-line-number js-blob-rnum&quot; style=&quot;position: relative ; width: 13.2031px ; min-width: inherit ; line-height: 20px ; text-align: right ; vertical-align: top ; cursor: pointer ; background: rgba(0 , 0 , 0 , 0) ; padding: 1px 10px&quot;&gt;&lt;/td&gt;&lt;td id=&quot;file-arduino_bluetooth_part2-ino-LC18&quot; class=&quot;blob-code blob-code-inner js-file-line&quot; style=&quot;position: relative ; line-height: 20px ; vertical-align: top ; overflow: visible ; overflow-wrap: normal ; background: rgba(0 , 0 , 0 , 0) ; border: 0px ; padding: 1px 10px&quot;&gt;  }&lt;/td&gt;&lt;/tr&gt;&lt;/tbody&gt;&lt;/table&gt;" style="text;html=1;align=center;verticalAlign=middle;resizable=0;points=[];autosize=1;strokeColor=none;fillColor=none;fontSize=14;fontFamily=Times New Roman;" vertex="1" parent="5-9y21-28eGrgCkgJ4F6-53">
          <mxGeometry x="10" y="15" width="350" height="90" as="geometry" />
        </mxCell>
        <mxCell id="5-9y21-28eGrgCkgJ4F6-55" value="&lt;table class=&quot;highlight tab-size js-file-line-container js-code-nav-container js-tagsearch-file&quot; style=&quot;padding: 0px ; margin: 0px ; font-size: 12px ; font-weight: 400 ; line-height: 1.4 ; color: rgb(51 , 51 , 51) ; border: 0px ; border-collapse: collapse ; font-style: normal ; letter-spacing: normal ; text-align: left ; text-transform: none ; word-spacing: 0px&quot;&gt;&lt;tbody&gt;&lt;tr&gt;&lt;td id=&quot;file-arduino_bluetooth_part2-ino-LC1&quot; class=&quot;blob-code blob-code-inner js-file-line&quot; style=&quot;position: relative ; padding: 4px 10px 1px ; line-height: 20px ; vertical-align: top ; overflow: visible ; font-size: 12px ; overflow-wrap: normal ; text-align: left ; background: rgba(0 , 0 , 0 , 0) ; border: 0px&quot;&gt;&lt;br&gt;&lt;/td&gt;&lt;/tr&gt;&lt;tr style=&quot;background-color: transparent&quot;&gt;&lt;td id=&quot;file-arduino_bluetooth_part2-ino-L2&quot; class=&quot;blob-num js-line-number js-code-nav-line-number js-blob-rnum&quot; style=&quot;position: relative ; width: 13.2031px ; min-width: inherit ; padding: 1px 10px ; font-size: 12px ; line-height: 20px ; text-align: right ; vertical-align: top ; cursor: pointer ; background: rgba(0 , 0 , 0 , 0)&quot;&gt;&lt;/td&gt;&lt;td id=&quot;file-arduino_bluetooth_part2-ino-LC2&quot; class=&quot;blob-code blob-code-inner js-file-line&quot; style=&quot;position: relative ; padding: 1px 10px ; line-height: 20px ; vertical-align: top ; overflow: visible ; font-size: 12px ; overflow-wrap: normal ; text-align: left ; background: rgba(0 , 0 , 0 , 0) ; border: 0px&quot;&gt;&lt;br style=&quot;color: rgb(0 , 0 , 0) ; font-size: 14px ; text-align: center&quot;&gt;&lt;table class=&quot;highlight tab-size js-file-line-container js-code-nav-container js-tagsearch-file&quot; style=&quot;padding: 0px ; margin: 0px ; line-height: 1.4 ; border: 0px ; border-collapse: collapse&quot;&gt;&lt;tbody&gt;&lt;tr&gt;&lt;td id=&quot;file-arduino_bluetooth_part2-ino-LC1&quot; class=&quot;blob-code blob-code-inner js-file-line&quot; style=&quot;position: relative ; padding: 4px 10px 1px ; line-height: 20px ; vertical-align: top ; overflow: visible ; overflow-wrap: normal ; background: rgba(0 , 0 , 0 , 0) ; border: 0px&quot;&gt;&lt;span class=&quot;pl-k&quot; style=&quot;color: rgb(215 , 58 , 73)&quot;&gt;const&lt;/span&gt;&amp;nbsp;&lt;span class=&quot;pl-k&quot; style=&quot;color: rgb(215 , 58 , 73)&quot;&gt;int&lt;/span&gt;&amp;nbsp;ledPin =&amp;nbsp;&lt;span class=&quot;pl-c1&quot; style=&quot;color: rgb(0 , 92 , 197)&quot;&gt;13&lt;/span&gt;;&amp;nbsp;&lt;span class=&quot;pl-c&quot; style=&quot;color: rgb(106 , 115 , 125)&quot;&gt;&lt;span class=&quot;pl-c&quot;&gt;//&lt;/span&gt;&amp;nbsp;Built in LED in Arduino board&lt;/span&gt;&lt;/td&gt;&lt;/tr&gt;&lt;/tbody&gt;&lt;/table&gt;String msg,cmd;&lt;/td&gt;&lt;/tr&gt;&lt;tr&gt;&lt;td id=&quot;file-arduino_bluetooth_part2-ino-L3&quot; class=&quot;blob-num js-line-number js-code-nav-line-number js-blob-rnum&quot; style=&quot;position: relative ; width: 13.2031px ; min-width: inherit ; padding: 1px 10px ; font-size: 12px ; line-height: 20px ; text-align: right ; vertical-align: top ; cursor: pointer ; background: rgba(0 , 0 , 0 , 0)&quot;&gt;&lt;/td&gt;&lt;td id=&quot;file-arduino_bluetooth_part2-ino-LC3&quot; class=&quot;blob-code blob-code-inner js-file-line&quot; style=&quot;position: relative ; padding: 1px 10px ; line-height: 20px ; vertical-align: top ; overflow: visible ; font-size: 12px ; overflow-wrap: normal ; text-align: left ; background: rgba(0 , 0 , 0 , 0) ; border: 0px&quot;&gt;&lt;br&gt;&lt;/td&gt;&lt;/tr&gt;&lt;tr style=&quot;background-color: transparent&quot;&gt;&lt;td id=&quot;file-arduino_bluetooth_part2-ino-L4&quot; class=&quot;blob-num js-line-number js-code-nav-line-number js-blob-rnum&quot; style=&quot;position: relative ; width: 13.2031px ; min-width: inherit ; padding: 1px 10px ; font-size: 12px ; line-height: 20px ; text-align: right ; vertical-align: top ; cursor: pointer ; background: rgba(0 , 0 , 0 , 0)&quot;&gt;&lt;/td&gt;&lt;td id=&quot;file-arduino_bluetooth_part2-ino-LC4&quot; class=&quot;blob-code blob-code-inner js-file-line&quot; style=&quot;position: relative ; padding: 1px 10px ; line-height: 20px ; vertical-align: top ; overflow: visible ; font-size: 12px ; overflow-wrap: normal ; text-align: left ; background: rgba(0 , 0 , 0 , 0) ; border: 0px&quot;&gt;&lt;span class=&quot;pl-k&quot; style=&quot;color: rgb(215 , 58 , 73)&quot;&gt;void&lt;/span&gt; &lt;span class=&quot;pl-en&quot; style=&quot;color: rgb(111 , 66 , 193)&quot;&gt;setup&lt;/span&gt;() {&lt;/td&gt;&lt;/tr&gt;&lt;tr&gt;&lt;td id=&quot;file-arduino_bluetooth_part2-ino-L5&quot; class=&quot;blob-num js-line-number js-code-nav-line-number js-blob-rnum&quot; style=&quot;position: relative ; width: 13.2031px ; min-width: inherit ; padding: 1px 10px ; font-size: 12px ; line-height: 20px ; text-align: right ; vertical-align: top ; cursor: pointer ; background: rgba(0 , 0 , 0 , 0)&quot;&gt;&lt;/td&gt;&lt;td id=&quot;file-arduino_bluetooth_part2-ino-LC5&quot; class=&quot;blob-code blob-code-inner js-file-line&quot; style=&quot;position: relative ; padding: 1px 10px ; line-height: 20px ; vertical-align: top ; overflow: visible ; font-size: 12px ; overflow-wrap: normal ; text-align: left ; background: rgba(0 , 0 , 0 , 0) ; border: 0px&quot;&gt;  &lt;span class=&quot;pl-c&quot; style=&quot;color: rgb(106 , 115 , 125)&quot;&gt;&lt;span class=&quot;pl-c&quot; style=&quot;color: rgb(106 , 115 , 125)&quot;&gt;//&lt;/span&gt; Initialization&lt;/span&gt;&lt;/td&gt;&lt;/tr&gt;&lt;tr style=&quot;background-color: transparent&quot;&gt;&lt;td id=&quot;file-arduino_bluetooth_part2-ino-L6&quot; class=&quot;blob-num js-line-number js-code-nav-line-number js-blob-rnum&quot; style=&quot;position: relative ; width: 13.2031px ; min-width: inherit ; padding: 1px 10px ; font-size: 12px ; line-height: 20px ; text-align: right ; vertical-align: top ; cursor: pointer ; background: rgba(0 , 0 , 0 , 0)&quot;&gt;&lt;/td&gt;&lt;td id=&quot;file-arduino_bluetooth_part2-ino-LC6&quot; class=&quot;blob-code blob-code-inner js-file-line&quot; style=&quot;position: relative ; padding: 1px 10px ; line-height: 20px ; vertical-align: top ; overflow: visible ; font-size: 12px ; overflow-wrap: normal ; text-align: left ; background: rgba(0 , 0 , 0 , 0) ; border: 0px&quot;&gt;  &lt;span class=&quot;pl-c1&quot; style=&quot;color: rgb(0 , 92 , 197)&quot;&gt;pinMode&lt;/span&gt;(ledPin, OUTPUT);&lt;/td&gt;&lt;/tr&gt;&lt;tr&gt;&lt;td id=&quot;file-arduino_bluetooth_part2-ino-L7&quot; class=&quot;blob-num js-line-number js-code-nav-line-number js-blob-rnum&quot; style=&quot;position: relative ; width: 13.2031px ; min-width: inherit ; padding: 1px 10px ; font-size: 12px ; line-height: 20px ; text-align: right ; vertical-align: top ; cursor: pointer ; background: rgba(0 , 0 , 0 , 0)&quot;&gt;&lt;/td&gt;&lt;td id=&quot;file-arduino_bluetooth_part2-ino-LC7&quot; class=&quot;blob-code blob-code-inner js-file-line&quot; style=&quot;position: relative ; padding: 1px 10px ; line-height: 20px ; vertical-align: top ; overflow: visible ; font-size: 12px ; overflow-wrap: normal ; text-align: left ; background: rgba(0 , 0 , 0 , 0) ; border: 0px&quot;&gt;  &lt;span class=&quot;pl-c1&quot; style=&quot;color: rgb(0 , 92 , 197)&quot;&gt;digitalWrite&lt;/span&gt;(ledPin, LOW);&lt;/td&gt;&lt;/tr&gt;&lt;tr style=&quot;background-color: transparent&quot;&gt;&lt;td id=&quot;file-arduino_bluetooth_part2-ino-L8&quot; class=&quot;blob-num js-line-number js-code-nav-line-number js-blob-rnum&quot; style=&quot;position: relative ; width: 13.2031px ; min-width: inherit ; padding: 1px 10px ; font-size: 12px ; line-height: 20px ; text-align: right ; vertical-align: top ; cursor: pointer ; background: rgba(0 , 0 , 0 , 0)&quot;&gt;&lt;/td&gt;&lt;td id=&quot;file-arduino_bluetooth_part2-ino-LC8&quot; class=&quot;blob-code blob-code-inner js-file-line&quot; style=&quot;position: relative ; padding: 1px 10px ; line-height: 20px ; vertical-align: top ; overflow: visible ; font-size: 12px ; overflow-wrap: normal ; text-align: left ; background: rgba(0 , 0 , 0 , 0) ; border: 0px&quot;&gt;  Serial.&lt;span class=&quot;pl-c1&quot; style=&quot;color: rgb(0 , 92 , 197)&quot;&gt;begin&lt;/span&gt;(&lt;span class=&quot;pl-c1&quot; style=&quot;color: rgb(0 , 92 , 197)&quot;&gt;9600&lt;/span&gt;); &lt;span class=&quot;pl-c&quot; style=&quot;color: rgb(106 , 115 , 125)&quot;&gt;&lt;span class=&quot;pl-c&quot; style=&quot;color: rgb(106 , 115 , 125)&quot;&gt;//&lt;/span&gt; Communication rate of the Bluetooth Module&lt;/span&gt;&lt;/td&gt;&lt;/tr&gt;&lt;tr&gt;&lt;td id=&quot;file-arduino_bluetooth_part2-ino-L9&quot; class=&quot;blob-num js-line-number js-code-nav-line-number js-blob-rnum&quot; style=&quot;position: relative ; width: 13.2031px ; min-width: inherit ; padding: 1px 10px ; font-size: 12px ; line-height: 20px ; text-align: right ; vertical-align: top ; cursor: pointer ; background: rgba(0 , 0 , 0 , 0)&quot;&gt;&lt;/td&gt;&lt;td id=&quot;file-arduino_bluetooth_part2-ino-LC9&quot; class=&quot;blob-code blob-code-inner js-file-line&quot; style=&quot;position: relative ; padding: 1px 10px ; line-height: 20px ; vertical-align: top ; overflow: visible ; font-size: 12px ; overflow-wrap: normal ; text-align: left ; background: rgba(0 , 0 , 0 , 0) ; border: 0px&quot;&gt;  msg = &lt;span class=&quot;pl-s&quot; style=&quot;color: rgb(3 , 47 , 98)&quot;&gt;&lt;span class=&quot;pl-pds&quot; style=&quot;color: rgb(3 , 47 , 98)&quot;&gt;&quot;&lt;/span&gt;&lt;span class=&quot;pl-pds&quot; style=&quot;color: rgb(3 , 47 , 98)&quot;&gt;&quot;&lt;/span&gt;&lt;/span&gt;;&lt;/td&gt;&lt;/tr&gt;&lt;tr style=&quot;background-color: transparent&quot;&gt;&lt;td id=&quot;file-arduino_bluetooth_part2-ino-L10&quot; class=&quot;blob-num js-line-number js-code-nav-line-number js-blob-rnum&quot; style=&quot;position: relative ; width: 13.2031px ; min-width: inherit ; padding: 1px 10px ; font-size: 12px ; line-height: 20px ; text-align: right ; vertical-align: top ; cursor: pointer ; background: rgba(0 , 0 , 0 , 0)&quot;&gt;&lt;/td&gt;&lt;td id=&quot;file-arduino_bluetooth_part2-ino-LC10&quot; class=&quot;blob-code blob-code-inner js-file-line&quot; style=&quot;position: relative ; padding: 1px 10px ; line-height: 20px ; vertical-align: top ; overflow: visible ; font-size: 12px ; overflow-wrap: normal ; text-align: left ; background: rgba(0 , 0 , 0 , 0) ; border: 0px&quot;&gt;}&lt;/td&gt;&lt;/tr&gt;&lt;tr&gt;&lt;td id=&quot;file-arduino_bluetooth_part2-ino-L11&quot; class=&quot;blob-num js-line-number js-code-nav-line-number js-blob-rnum&quot; style=&quot;position: relative ; width: 13.2031px ; min-width: inherit ; padding: 1px 10px ; font-size: 12px ; line-height: 20px ; text-align: right ; vertical-align: top ; cursor: pointer ; background: rgba(0 , 0 , 0 , 0)&quot;&gt;&lt;/td&gt;&lt;td id=&quot;file-arduino_bluetooth_part2-ino-LC11&quot; class=&quot;blob-code blob-code-inner js-file-line&quot; style=&quot;position: relative ; padding: 1px 10px ; line-height: 20px ; vertical-align: top ; overflow: visible ; font-size: 12px ; overflow-wrap: normal ; text-align: left ; background: rgba(0 , 0 , 0 , 0) ; border: 0px&quot;&gt;&lt;br&gt;&lt;/td&gt;&lt;/tr&gt;&lt;tr style=&quot;background-color: transparent&quot;&gt;&lt;td id=&quot;file-arduino_bluetooth_part2-ino-L12&quot; class=&quot;blob-num js-line-number js-code-nav-line-number js-blob-rnum&quot; style=&quot;position: relative ; width: 13.2031px ; min-width: inherit ; padding: 1px 10px ; font-size: 12px ; line-height: 20px ; text-align: right ; vertical-align: top ; cursor: pointer ; background: rgba(0 , 0 , 0 , 0)&quot;&gt;&lt;/td&gt;&lt;td id=&quot;file-arduino_bluetooth_part2-ino-LC12&quot; class=&quot;blob-code blob-code-inner js-file-line&quot; style=&quot;position: relative ; padding: 1px 10px ; line-height: 20px ; vertical-align: top ; overflow: visible ; font-size: 12px ; overflow-wrap: normal ; text-align: left ; background: rgba(0 , 0 , 0 , 0) ; border: 0px&quot;&gt;&lt;span class=&quot;pl-k&quot; style=&quot;color: rgb(215 , 58 , 73)&quot;&gt;void&lt;/span&gt; &lt;span class=&quot;pl-en&quot; style=&quot;color: rgb(111 , 66 , 193)&quot;&gt;loop&lt;/span&gt;() {&lt;/td&gt;&lt;/tr&gt;&lt;tr&gt;&lt;td id=&quot;file-arduino_bluetooth_part2-ino-L13&quot; class=&quot;blob-num js-line-number js-code-nav-line-number js-blob-rnum&quot; style=&quot;position: relative ; width: 13.2031px ; min-width: inherit ; padding: 1px 10px ; font-size: 12px ; line-height: 20px ; text-align: right ; vertical-align: top ; cursor: pointer ; background: rgba(0 , 0 , 0 , 0)&quot;&gt;&lt;/td&gt;&lt;td id=&quot;file-arduino_bluetooth_part2-ino-LC13&quot; class=&quot;blob-code blob-code-inner js-file-line&quot; style=&quot;position: relative ; padding: 1px 10px ; line-height: 20px ; vertical-align: top ; overflow: visible ; font-size: 12px ; overflow-wrap: normal ; text-align: left ; background: rgba(0 , 0 , 0 , 0) ; border: 0px&quot;&gt;  &lt;/td&gt;&lt;/tr&gt;&lt;tr style=&quot;background-color: transparent&quot;&gt;&lt;td id=&quot;file-arduino_bluetooth_part2-ino-L14&quot; class=&quot;blob-num js-line-number js-code-nav-line-number js-blob-rnum&quot; style=&quot;position: relative ; width: 13.2031px ; min-width: inherit ; padding: 1px 10px ; font-size: 12px ; line-height: 20px ; text-align: right ; vertical-align: top ; cursor: pointer ; background: rgba(0 , 0 , 0 , 0)&quot;&gt;&lt;/td&gt;&lt;td id=&quot;file-arduino_bluetooth_part2-ino-LC14&quot; class=&quot;blob-code blob-code-inner js-file-line&quot; style=&quot;position: relative ; padding: 1px 10px ; line-height: 20px ; vertical-align: top ; overflow: visible ; font-size: 12px ; overflow-wrap: normal ; text-align: left ; background: rgba(0 , 0 , 0 , 0) ; border: 0px&quot;&gt;  &lt;span class=&quot;pl-c&quot; style=&quot;color: rgb(106 , 115 , 125)&quot;&gt;&lt;span class=&quot;pl-c&quot; style=&quot;color: rgb(106 , 115 , 125)&quot;&gt;//&lt;/span&gt; To read message received from other Bluetooth Device&lt;/span&gt;&lt;/td&gt;&lt;/tr&gt;&lt;tr&gt;&lt;td id=&quot;file-arduino_bluetooth_part2-ino-L15&quot; class=&quot;blob-num js-line-number js-code-nav-line-number js-blob-rnum&quot; style=&quot;position: relative ; width: 13.2031px ; min-width: inherit ; padding: 1px 10px ; font-size: 12px ; line-height: 20px ; text-align: right ; vertical-align: top ; cursor: pointer ; background: rgba(0 , 0 , 0 , 0)&quot;&gt;&lt;/td&gt;&lt;td id=&quot;file-arduino_bluetooth_part2-ino-LC15&quot; class=&quot;blob-code blob-code-inner js-file-line&quot; style=&quot;position: relative ; padding: 1px 10px ; line-height: 20px ; vertical-align: top ; overflow: visible ; font-size: 12px ; overflow-wrap: normal ; text-align: left ; background: rgba(0 , 0 , 0 , 0) ; border: 0px&quot;&gt;  &lt;span class=&quot;pl-k&quot; style=&quot;color: rgb(215 , 58 , 73)&quot;&gt;if&lt;/span&gt; (Serial.&lt;span class=&quot;pl-c1&quot; style=&quot;color: rgb(0 , 92 , 197)&quot;&gt;available&lt;/span&gt;() &amp;gt; &lt;span class=&quot;pl-c1&quot; style=&quot;color: rgb(0 , 92 , 197)&quot;&gt;0&lt;/span&gt;){ &lt;span class=&quot;pl-c&quot; style=&quot;color: rgb(106 , 115 , 125)&quot;&gt;&lt;span class=&quot;pl-c&quot; style=&quot;color: rgb(106 , 115 , 125)&quot;&gt;//&lt;/span&gt; Check if there is data coming&lt;/span&gt;&lt;/td&gt;&lt;/tr&gt;&lt;tr style=&quot;background-color: transparent&quot;&gt;&lt;td id=&quot;file-arduino_bluetooth_part2-ino-L16&quot; class=&quot;blob-num js-line-number js-code-nav-line-number js-blob-rnum&quot; style=&quot;position: relative ; width: 13.2031px ; min-width: inherit ; padding: 1px 10px ; font-size: 12px ; line-height: 20px ; text-align: right ; vertical-align: top ; cursor: pointer ; background: rgba(0 , 0 , 0 , 0)&quot;&gt;&lt;/td&gt;&lt;td id=&quot;file-arduino_bluetooth_part2-ino-LC16&quot; class=&quot;blob-code blob-code-inner js-file-line&quot; style=&quot;position: relative ; padding: 1px 10px ; line-height: 20px ; vertical-align: top ; overflow: visible ; font-size: 12px ; overflow-wrap: normal ; text-align: left ; background: rgba(0 , 0 , 0 , 0) ; border: 0px&quot;&gt;    msg = Serial.&lt;span class=&quot;pl-c1&quot; style=&quot;color: rgb(0 , 92 , 197)&quot;&gt;readString&lt;/span&gt;(); &lt;span class=&quot;pl-c&quot; style=&quot;color: rgb(106 , 115 , 125)&quot;&gt;&lt;span class=&quot;pl-c&quot; style=&quot;color: rgb(106 , 115 , 125)&quot;&gt;//&lt;/span&gt; Read the message as String&lt;/span&gt;&lt;/td&gt;&lt;/tr&gt;&lt;tr&gt;&lt;td id=&quot;file-arduino_bluetooth_part2-ino-L17&quot; class=&quot;blob-num js-line-number js-code-nav-line-number js-blob-rnum&quot; style=&quot;position: relative ; width: 13.2031px ; min-width: inherit ; padding: 1px 10px ; font-size: 12px ; line-height: 20px ; text-align: right ; vertical-align: top ; cursor: pointer ; background: rgba(0 , 0 , 0 , 0)&quot;&gt;&lt;/td&gt;&lt;td id=&quot;file-arduino_bluetooth_part2-ino-LC17&quot; class=&quot;blob-code blob-code-inner js-file-line&quot; style=&quot;position: relative ; padding: 1px 10px ; line-height: 20px ; vertical-align: top ; overflow: visible ; font-size: 12px ; overflow-wrap: normal ; text-align: left ; background: rgba(0 , 0 , 0 , 0) ; border: 0px&quot;&gt;    Serial.&lt;span class=&quot;pl-c1&quot; style=&quot;color: rgb(0 , 92 , 197)&quot;&gt;println&lt;/span&gt;(&lt;span class=&quot;pl-s&quot; style=&quot;color: rgb(3 , 47 , 98)&quot;&gt;&lt;span class=&quot;pl-pds&quot; style=&quot;color: rgb(3 , 47 , 98)&quot;&gt;&quot;&lt;/span&gt;Android Command: &lt;span class=&quot;pl-pds&quot; style=&quot;color: rgb(3 , 47 , 98)&quot;&gt;&quot;&lt;/span&gt;&lt;/span&gt; + msg);&lt;/td&gt;&lt;/tr&gt;&lt;tr style=&quot;background-color: transparent&quot;&gt;&lt;td id=&quot;file-arduino_bluetooth_part2-ino-L18&quot; class=&quot;blob-num js-line-number js-code-nav-line-number js-blob-rnum&quot; style=&quot;position: relative ; width: 13.2031px ; min-width: inherit ; padding: 1px 10px ; font-size: 12px ; line-height: 20px ; text-align: right ; vertical-align: top ; cursor: pointer ; background: rgba(0 , 0 , 0 , 0)&quot;&gt;&lt;/td&gt;&lt;td id=&quot;file-arduino_bluetooth_part2-ino-LC18&quot; class=&quot;blob-code blob-code-inner js-file-line&quot; style=&quot;position: relative ; padding: 1px 10px ; line-height: 20px ; vertical-align: top ; overflow: visible ; font-size: 12px ; overflow-wrap: normal ; text-align: left ; background: rgba(0 , 0 , 0 , 0) ; border: 0px&quot;&gt;  }&lt;/td&gt;&lt;/tr&gt;&lt;tr&gt;&lt;td id=&quot;file-arduino_bluetooth_part2-ino-L19&quot; class=&quot;blob-num js-line-number js-code-nav-line-number js-blob-rnum&quot; style=&quot;position: relative ; width: 13.2031px ; min-width: inherit ; padding: 1px 10px ; font-size: 12px ; line-height: 20px ; text-align: right ; vertical-align: top ; cursor: pointer ; background: rgba(0 , 0 , 0 , 0)&quot;&gt;&lt;/td&gt;&lt;td id=&quot;file-arduino_bluetooth_part2-ino-LC19&quot; class=&quot;blob-code blob-code-inner js-file-line&quot; style=&quot;position: relative ; padding: 1px 10px ; line-height: 20px ; vertical-align: top ; overflow: visible ; font-size: 12px ; overflow-wrap: normal ; text-align: left ; background: rgba(0 , 0 , 0 , 0) ; border: 0px&quot;&gt;&lt;br&gt;&lt;/td&gt;&lt;/tr&gt;&lt;tr style=&quot;background-color: transparent&quot;&gt;&lt;td id=&quot;file-arduino_bluetooth_part2-ino-L20&quot; class=&quot;blob-num js-line-number js-code-nav-line-number js-blob-rnum&quot; style=&quot;position: relative ; width: 13.2031px ; min-width: inherit ; padding: 1px 10px ; font-size: 12px ; line-height: 20px ; text-align: right ; vertical-align: top ; cursor: pointer ; background: rgba(0 , 0 , 0 , 0)&quot;&gt;&lt;/td&gt;&lt;td id=&quot;file-arduino_bluetooth_part2-ino-LC20&quot; class=&quot;blob-code blob-code-inner js-file-line&quot; style=&quot;position: relative ; padding: 1px 10px ; line-height: 20px ; vertical-align: top ; overflow: visible ; font-size: 12px ; overflow-wrap: normal ; text-align: left ; background: rgba(0 , 0 , 0 , 0) ; border: 0px&quot;&gt;  &lt;span class=&quot;pl-c&quot; style=&quot;color: rgb(106 , 115 , 125)&quot;&gt;&lt;span class=&quot;pl-c&quot; style=&quot;color: rgb(106 , 115 , 125)&quot;&gt;//&lt;/span&gt; Control LED in Arduino board&lt;/span&gt;&lt;/td&gt;&lt;/tr&gt;&lt;tr&gt;&lt;td id=&quot;file-arduino_bluetooth_part2-ino-L21&quot; class=&quot;blob-num js-line-number js-code-nav-line-number js-blob-rnum&quot; style=&quot;position: relative ; width: 13.2031px ; min-width: inherit ; padding: 1px 10px ; font-size: 12px ; line-height: 20px ; text-align: right ; vertical-align: top ; cursor: pointer ; background: rgba(0 , 0 , 0 , 0)&quot;&gt;&lt;/td&gt;&lt;td id=&quot;file-arduino_bluetooth_part2-ino-LC21&quot; class=&quot;blob-code blob-code-inner js-file-line&quot; style=&quot;position: relative ; padding: 1px 10px ; line-height: 20px ; vertical-align: top ; overflow: visible ; font-size: 12px ; overflow-wrap: normal ; text-align: left ; background: rgba(0 , 0 , 0 , 0) ; border: 0px&quot;&gt;  &lt;span class=&quot;pl-k&quot; style=&quot;color: rgb(215 , 58 , 73)&quot;&gt;if&lt;/span&gt; (msg == &lt;span class=&quot;pl-s&quot; style=&quot;color: rgb(3 , 47 , 98)&quot;&gt;&lt;span class=&quot;pl-pds&quot; style=&quot;color: rgb(3 , 47 , 98)&quot;&gt;&quot;&lt;/span&gt;&amp;lt;turn on&amp;gt;&lt;span class=&quot;pl-pds&quot; style=&quot;color: rgb(3 , 47 , 98)&quot;&gt;&quot;&lt;/span&gt;&lt;/span&gt;){&lt;/td&gt;&lt;/tr&gt;&lt;tr style=&quot;background-color: transparent&quot;&gt;&lt;td id=&quot;file-arduino_bluetooth_part2-ino-L22&quot; class=&quot;blob-num js-line-number js-code-nav-line-number js-blob-rnum&quot; style=&quot;position: relative ; width: 13.2031px ; min-width: inherit ; padding: 1px 10px ; font-size: 12px ; line-height: 20px ; text-align: right ; vertical-align: top ; cursor: pointer ; background: rgba(0 , 0 , 0 , 0)&quot;&gt;&lt;/td&gt;&lt;td id=&quot;file-arduino_bluetooth_part2-ino-LC22&quot; class=&quot;blob-code blob-code-inner js-file-line&quot; style=&quot;position: relative ; padding: 1px 10px ; line-height: 20px ; vertical-align: top ; overflow: visible ; font-size: 12px ; overflow-wrap: normal ; text-align: left ; background: rgba(0 , 0 , 0 , 0) ; border: 0px&quot;&gt;    &lt;span class=&quot;pl-c1&quot; style=&quot;color: rgb(0 , 92 , 197)&quot;&gt;digitalWrite&lt;/span&gt;(ledPin, HIGH); &lt;span class=&quot;pl-c&quot; style=&quot;color: rgb(106 , 115 , 125)&quot;&gt;&lt;span class=&quot;pl-c&quot; style=&quot;color: rgb(106 , 115 , 125)&quot;&gt;//&lt;/span&gt; Turn on LED&lt;/span&gt;&lt;/td&gt;&lt;/tr&gt;&lt;tr&gt;&lt;td id=&quot;file-arduino_bluetooth_part2-ino-L23&quot; class=&quot;blob-num js-line-number js-code-nav-line-number js-blob-rnum&quot; style=&quot;position: relative ; width: 13.2031px ; min-width: inherit ; padding: 1px 10px ; font-size: 12px ; line-height: 20px ; text-align: right ; vertical-align: top ; cursor: pointer ; background: rgba(0 , 0 , 0 , 0)&quot;&gt;&lt;/td&gt;&lt;td id=&quot;file-arduino_bluetooth_part2-ino-LC23&quot; class=&quot;blob-code blob-code-inner js-file-line&quot; style=&quot;position: relative ; padding: 1px 10px ; line-height: 20px ; vertical-align: top ; overflow: visible ; font-size: 12px ; overflow-wrap: normal ; text-align: left ; background: rgba(0 , 0 , 0 , 0) ; border: 0px&quot;&gt;    Serial.&lt;span class=&quot;pl-c1&quot; style=&quot;color: rgb(0 , 92 , 197)&quot;&gt;println&lt;/span&gt;(&lt;span class=&quot;pl-s&quot; style=&quot;color: rgb(3 , 47 , 98)&quot;&gt;&lt;span class=&quot;pl-pds&quot; style=&quot;color: rgb(3 , 47 , 98)&quot;&gt;&quot;&lt;/span&gt;LED is turned on&lt;span class=&quot;pl-cce&quot;&gt;\n&lt;/span&gt;&lt;span class=&quot;pl-pds&quot; style=&quot;color: rgb(3 , 47 , 98)&quot;&gt;&quot;&lt;/span&gt;&lt;/span&gt;); &lt;span class=&quot;pl-c&quot; style=&quot;color: rgb(106 , 115 , 125)&quot;&gt;&lt;span class=&quot;pl-c&quot; style=&quot;color: rgb(106 , 115 , 125)&quot;&gt;//&lt;/span&gt; Then send status message to Android&lt;/span&gt;&lt;/td&gt;&lt;/tr&gt;&lt;tr style=&quot;background-color: transparent&quot;&gt;&lt;td id=&quot;file-arduino_bluetooth_part2-ino-L24&quot; class=&quot;blob-num js-line-number js-code-nav-line-number js-blob-rnum&quot; style=&quot;position: relative ; width: 13.2031px ; min-width: inherit ; padding: 1px 10px ; font-size: 12px ; line-height: 20px ; text-align: right ; vertical-align: top ; cursor: pointer ; background: rgba(0 , 0 , 0 , 0)&quot;&gt;&lt;/td&gt;&lt;td id=&quot;file-arduino_bluetooth_part2-ino-LC24&quot; class=&quot;blob-code blob-code-inner js-file-line&quot; style=&quot;position: relative ; padding: 1px 10px ; line-height: 20px ; vertical-align: top ; overflow: visible ; font-size: 12px ; overflow-wrap: normal ; text-align: left ; background: rgba(0 , 0 , 0 , 0) ; border: 0px&quot;&gt;    msg = &lt;span class=&quot;pl-s&quot; style=&quot;color: rgb(3 , 47 , 98)&quot;&gt;&lt;span class=&quot;pl-pds&quot; style=&quot;color: rgb(3 , 47 , 98)&quot;&gt;&quot;&lt;/span&gt;&lt;span class=&quot;pl-pds&quot; style=&quot;color: rgb(3 , 47 , 98)&quot;&gt;&quot;&lt;/span&gt;&lt;/span&gt;; &lt;span class=&quot;pl-c&quot; style=&quot;color: rgb(106 , 115 , 125)&quot;&gt;&lt;span class=&quot;pl-c&quot; style=&quot;color: rgb(106 , 115 , 125)&quot;&gt;//&lt;/span&gt; reset command&lt;/span&gt;&lt;/td&gt;&lt;/tr&gt;&lt;tr&gt;&lt;td id=&quot;file-arduino_bluetooth_part2-ino-L25&quot; class=&quot;blob-num js-line-number js-code-nav-line-number js-blob-rnum&quot; style=&quot;position: relative ; width: 13.2031px ; min-width: inherit ; padding: 1px 10px ; font-size: 12px ; line-height: 20px ; text-align: right ; vertical-align: top ; cursor: pointer ; background: rgba(0 , 0 , 0 , 0)&quot;&gt;&lt;/td&gt;&lt;td id=&quot;file-arduino_bluetooth_part2-ino-LC25&quot; class=&quot;blob-code blob-code-inner js-file-line&quot; style=&quot;position: relative ; padding: 1px 10px ; line-height: 20px ; vertical-align: top ; overflow: visible ; font-size: 12px ; overflow-wrap: normal ; text-align: left ; background: rgba(0 , 0 , 0 , 0) ; border: 0px&quot;&gt;  } &lt;span class=&quot;pl-k&quot; style=&quot;color: rgb(215 , 58 , 73)&quot;&gt;else&lt;/span&gt; {&lt;/td&gt;&lt;/tr&gt;&lt;tr style=&quot;background-color: transparent&quot;&gt;&lt;td id=&quot;file-arduino_bluetooth_part2-ino-L26&quot; class=&quot;blob-num js-line-number js-code-nav-line-number js-blob-rnum&quot; style=&quot;position: relative ; width: 13.2031px ; min-width: inherit ; padding: 1px 10px ; font-size: 12px ; line-height: 20px ; text-align: right ; vertical-align: top ; cursor: pointer ; background: rgba(0 , 0 , 0 , 0)&quot;&gt;&lt;/td&gt;&lt;td id=&quot;file-arduino_bluetooth_part2-ino-LC26&quot; class=&quot;blob-code blob-code-inner js-file-line&quot; style=&quot;position: relative ; padding: 1px 10px ; line-height: 20px ; vertical-align: top ; overflow: visible ; font-size: 12px ; overflow-wrap: normal ; text-align: left ; background: rgba(0 , 0 , 0 , 0) ; border: 0px&quot;&gt;    &lt;span class=&quot;pl-k&quot; style=&quot;color: rgb(215 , 58 , 73)&quot;&gt;if&lt;/span&gt; (msg == &lt;span class=&quot;pl-s&quot; style=&quot;color: rgb(3 , 47 , 98)&quot;&gt;&lt;span class=&quot;pl-pds&quot; style=&quot;color: rgb(3 , 47 , 98)&quot;&gt;&quot;&lt;/span&gt;&amp;lt;turn off&amp;gt;&lt;span class=&quot;pl-pds&quot; style=&quot;color: rgb(3 , 47 , 98)&quot;&gt;&quot;&lt;/span&gt;&lt;/span&gt;){&lt;/td&gt;&lt;/tr&gt;&lt;tr&gt;&lt;td id=&quot;file-arduino_bluetooth_part2-ino-L27&quot; class=&quot;blob-num js-line-number js-code-nav-line-number js-blob-rnum&quot; style=&quot;position: relative ; width: 13.2031px ; min-width: inherit ; padding: 1px 10px ; font-size: 12px ; line-height: 20px ; text-align: right ; vertical-align: top ; cursor: pointer ; background: rgba(0 , 0 , 0 , 0)&quot;&gt;&lt;/td&gt;&lt;td id=&quot;file-arduino_bluetooth_part2-ino-LC27&quot; class=&quot;blob-code blob-code-inner js-file-line&quot; style=&quot;position: relative ; padding: 1px 10px ; line-height: 20px ; vertical-align: top ; overflow: visible ; font-size: 12px ; overflow-wrap: normal ; text-align: left ; background: rgba(0 , 0 , 0 , 0) ; border: 0px&quot;&gt;      &lt;span class=&quot;pl-c1&quot; style=&quot;color: rgb(0 , 92 , 197)&quot;&gt;digitalWrite&lt;/span&gt;(ledPin, LOW); &lt;span class=&quot;pl-c&quot; style=&quot;color: rgb(106 , 115 , 125)&quot;&gt;&lt;span class=&quot;pl-c&quot; style=&quot;color: rgb(106 , 115 , 125)&quot;&gt;//&lt;/span&gt; Turn off LED&lt;/span&gt;&lt;/td&gt;&lt;/tr&gt;&lt;tr style=&quot;background-color: transparent&quot;&gt;&lt;td id=&quot;file-arduino_bluetooth_part2-ino-L28&quot; class=&quot;blob-num js-line-number js-code-nav-line-number js-blob-rnum&quot; style=&quot;position: relative ; width: 13.2031px ; min-width: inherit ; padding: 1px 10px ; font-size: 12px ; line-height: 20px ; text-align: right ; vertical-align: top ; cursor: pointer ; background: rgba(0 , 0 , 0 , 0)&quot;&gt;&lt;/td&gt;&lt;td id=&quot;file-arduino_bluetooth_part2-ino-LC28&quot; class=&quot;blob-code blob-code-inner js-file-line&quot; style=&quot;position: relative ; padding: 1px 10px ; line-height: 20px ; vertical-align: top ; overflow: visible ; font-size: 12px ; overflow-wrap: normal ; text-align: left ; background: rgba(0 , 0 , 0 , 0) ; border: 0px&quot;&gt;      Serial.&lt;span class=&quot;pl-c1&quot; style=&quot;color: rgb(0 , 92 , 197)&quot;&gt;println&lt;/span&gt;(&lt;span class=&quot;pl-s&quot; style=&quot;color: rgb(3 , 47 , 98)&quot;&gt;&lt;span class=&quot;pl-pds&quot; style=&quot;color: rgb(3 , 47 , 98)&quot;&gt;&quot;&lt;/span&gt;LED is turned off&lt;span class=&quot;pl-cce&quot;&gt;\n&lt;/span&gt;&lt;span class=&quot;pl-pds&quot; style=&quot;color: rgb(3 , 47 , 98)&quot;&gt;&quot;&lt;/span&gt;&lt;/span&gt;); &lt;span class=&quot;pl-c&quot; style=&quot;color: rgb(106 , 115 , 125)&quot;&gt;&lt;span class=&quot;pl-c&quot; style=&quot;color: rgb(106 , 115 , 125)&quot;&gt;//&lt;/span&gt; Then send status message to Android&lt;/span&gt;&lt;/td&gt;&lt;/tr&gt;&lt;tr&gt;&lt;td id=&quot;file-arduino_bluetooth_part2-ino-L29&quot; class=&quot;blob-num js-line-number js-code-nav-line-number js-blob-rnum&quot; style=&quot;position: relative ; width: 13.2031px ; min-width: inherit ; padding: 1px 10px ; font-size: 12px ; line-height: 20px ; text-align: right ; vertical-align: top ; cursor: pointer ; background: rgba(0 , 0 , 0 , 0)&quot;&gt;&lt;/td&gt;&lt;td id=&quot;file-arduino_bluetooth_part2-ino-LC29&quot; class=&quot;blob-code blob-code-inner js-file-line&quot; style=&quot;position: relative ; padding: 1px 10px ; line-height: 20px ; vertical-align: top ; overflow: visible ; font-size: 12px ; overflow-wrap: normal ; text-align: left ; background: rgba(0 , 0 , 0 , 0) ; border: 0px&quot;&gt;      msg = &lt;span class=&quot;pl-s&quot; style=&quot;color: rgb(3 , 47 , 98)&quot;&gt;&lt;span class=&quot;pl-pds&quot; style=&quot;color: rgb(3 , 47 , 98)&quot;&gt;&quot;&lt;/span&gt;&lt;span class=&quot;pl-pds&quot; style=&quot;color: rgb(3 , 47 , 98)&quot;&gt;&quot;&lt;/span&gt;&lt;/span&gt;; &lt;span class=&quot;pl-c&quot; style=&quot;color: rgb(106 , 115 , 125)&quot;&gt;&lt;span class=&quot;pl-c&quot; style=&quot;color: rgb(106 , 115 , 125)&quot;&gt;//&lt;/span&gt; reset command&lt;/span&gt;&lt;/td&gt;&lt;/tr&gt;&lt;tr style=&quot;background-color: transparent&quot;&gt;&lt;td id=&quot;file-arduino_bluetooth_part2-ino-L30&quot; class=&quot;blob-num js-line-number js-code-nav-line-number js-blob-rnum&quot; style=&quot;position: relative ; width: 13.2031px ; min-width: inherit ; padding: 1px 10px ; font-size: 12px ; line-height: 20px ; text-align: right ; vertical-align: top ; cursor: pointer ; background: rgba(0 , 0 , 0 , 0)&quot;&gt;&lt;/td&gt;&lt;td id=&quot;file-arduino_bluetooth_part2-ino-LC30&quot; class=&quot;blob-code blob-code-inner js-file-line&quot; style=&quot;position: relative ; padding: 1px 10px ; line-height: 20px ; vertical-align: top ; overflow: visible ; font-size: 12px ; overflow-wrap: normal ; text-align: left ; background: rgba(0 , 0 , 0 , 0) ; border: 0px&quot;&gt;    }&lt;/td&gt;&lt;/tr&gt;&lt;tr&gt;&lt;td id=&quot;file-arduino_bluetooth_part2-ino-L31&quot; class=&quot;blob-num js-line-number js-code-nav-line-number js-blob-rnum&quot; style=&quot;position: relative ; width: 13.2031px ; min-width: inherit ; padding: 1px 10px ; font-size: 12px ; line-height: 20px ; text-align: right ; vertical-align: top ; cursor: pointer ; background: rgba(0 , 0 , 0 , 0)&quot;&gt;&lt;/td&gt;&lt;td id=&quot;file-arduino_bluetooth_part2-ino-LC31&quot; class=&quot;blob-code blob-code-inner js-file-line&quot; style=&quot;position: relative ; padding: 1px 10px ; line-height: 20px ; vertical-align: top ; overflow: visible ; font-size: 12px ; overflow-wrap: normal ; text-align: left ; background: rgba(0 , 0 , 0 , 0) ; border: 0px&quot;&gt;  }&lt;/td&gt;&lt;/tr&gt;&lt;tr style=&quot;background-color: transparent&quot;&gt;&lt;td id=&quot;file-arduino_bluetooth_part2-ino-L32&quot; class=&quot;blob-num js-line-number js-code-nav-line-number js-blob-rnum&quot; style=&quot;position: relative ; width: 13.2031px ; min-width: inherit ; padding: 1px 10px ; font-size: 12px ; line-height: 20px ; text-align: right ; vertical-align: top ; cursor: pointer ; background: rgba(0 , 0 , 0 , 0)&quot;&gt;&lt;/td&gt;&lt;td id=&quot;file-arduino_bluetooth_part2-ino-LC32&quot; class=&quot;blob-code blob-code-inner js-file-line&quot; style=&quot;position: relative ; padding: 1px 10px ; line-height: 20px ; vertical-align: top ; overflow: visible ; font-size: 12px ; overflow-wrap: normal ; text-align: left ; background: rgba(0 , 0 , 0 , 0) ; border: 0px&quot;&gt;}&lt;/td&gt;&lt;/tr&gt;&lt;/tbody&gt;&lt;/table&gt;" style="text;html=1;align=center;verticalAlign=middle;resizable=0;points=[];autosize=1;strokeColor=none;fillColor=none;fontSize=14;fontFamily=Times New Roman;" vertex="1" parent="5-9y21-28eGrgCkgJ4F6-53">
          <mxGeometry x="-10" y="100" width="440" height="740" as="geometry" />
        </mxCell>
        <mxCell id="5-9y21-28eGrgCkgJ4F6-56" value="output:" style="text;html=1;align=center;verticalAlign=middle;resizable=0;points=[];autosize=1;strokeColor=none;fillColor=none;fontSize=14;fontFamily=Times New Roman;" vertex="1" parent="1">
          <mxGeometry x="120" y="340" width="60" height="20" as="geometry" />
        </mxCell>
        <mxCell id="5-9y21-28eGrgCkgJ4F6-57" value="input:" style="text;html=1;align=center;verticalAlign=middle;resizable=0;points=[];autosize=1;strokeColor=none;fillColor=none;fontSize=14;fontFamily=Times New Roman;" vertex="1" parent="1">
          <mxGeometry x="345" y="310" width="50" height="20" as="geometry" />
        </mxCell>
        <mxCell id="5-9y21-28eGrgCkgJ4F6-58" value="input:" style="text;html=1;align=center;verticalAlign=middle;resizable=0;points=[];autosize=1;strokeColor=none;fillColor=none;fontSize=14;fontFamily=Times New Roman;" vertex="1" parent="1">
          <mxGeometry x="165" y="550" width="50" height="20" as="geometry" />
        </mxCell>
        <mxCell id="5-9y21-28eGrgCkgJ4F6-59" value="&lt;span style=&quot;color: rgba(0 , 0 , 0 , 0) ; font-family: monospace ; font-size: 0px&quot;&gt;%3CmxGraphModel%3E%3Croot%3E%3CmxCell%20id%3D%220%22%2F%3E%3CmxCell%20id%3D%221%22%20parent%3D%220%22%2F%3E%3CmxCell%20id%3D%222%22%20value%3D%22transmission%20to%20cloud%22%20style%3D%22text%3Bhtml%3D1%3Balign%3Dcenter%3BverticalAlign%3Dmiddle%3Bresizable%3D0%3Bpoints%3D%5B%5D%3Bautosize%3D1%3BstrokeColor%3Dnone%3BfillColor%3Dnone%3BfontSize%3D14%3BfontFamily%3DTimes%20New%20Roman%3B%22%20vertex%3D%221%22%20parent%3D%221%22%3E%3CmxGeometry%20x%3D%22130%22%20y%3D%22450%22%20width%3D%22140%22%20height%3D%2220%22%20as%3D%22geometry%22%2F%3E%3C%2FmxCell%3E%3C%2Froot%3E%3C%2FmxGraphModel%3E&lt;/span&gt;" style="text;html=1;align=center;verticalAlign=middle;resizable=0;points=[];autosize=1;strokeColor=none;fillColor=none;fontSize=14;fontFamily=Times New Roman;" vertex="1" parent="1">
          <mxGeometry x="360" y="445" width="20" height="30" as="geometry" />
        </mxCell>
        <mxCell id="5-9y21-28eGrgCkgJ4F6-60" value="Data Stream" style="swimlane;labelBackgroundColor=#FFFF33;" vertex="1" parent="1">
          <mxGeometry x="350" y="10" width="200" height="140" as="geometry" />
        </mxCell>
        <mxCell id="5-9y21-28eGrgCkgJ4F6-61" value="" style="curved=1;endArrow=classic;html=1;rounded=0;" edge="1" parent="5-9y21-28eGrgCkgJ4F6-60">
          <mxGeometry width="50" height="50" relative="1" as="geometry">
            <mxPoint x="70" y="150" as="sourcePoint" />
            <mxPoint x="100" y="230" as="targetPoint" />
            <Array as="points">
              <mxPoint x="75" y="190" />
            </Array>
          </mxGeometry>
        </mxCell>
        <mxCell id="5-9y21-28eGrgCkgJ4F6-62" value="serial.readByte()" style="text;html=1;align=center;verticalAlign=middle;resizable=0;points=[];autosize=1;strokeColor=none;fillColor=none;fontSize=14;fontFamily=Times New Roman;" vertex="1" parent="5-9y21-28eGrgCkgJ4F6-60">
          <mxGeometry x="10" y="30" width="110" height="20" as="geometry" />
        </mxCell>
        <mxCell id="5-9y21-28eGrgCkgJ4F6-63" value="bool connect()" style="text;html=1;align=center;verticalAlign=middle;resizable=0;points=[];autosize=1;strokeColor=none;fillColor=none;fontSize=14;fontFamily=Times New Roman;" vertex="1" parent="5-9y21-28eGrgCkgJ4F6-60">
          <mxGeometry x="10" y="90" width="100" height="20" as="geometry" />
        </mxCell>
        <mxCell id="5-9y21-28eGrgCkgJ4F6-64" value="Bluetooth" style="swimlane;" vertex="1" parent="1">
          <mxGeometry x="120" y="255" width="200" height="220" as="geometry" />
        </mxCell>
        <mxCell id="5-9y21-28eGrgCkgJ4F6-65" value="bool verified" style="text;html=1;align=center;verticalAlign=middle;resizable=0;points=[];autosize=1;strokeColor=none;fillColor=none;" vertex="1" parent="5-9y21-28eGrgCkgJ4F6-64">
          <mxGeometry x="25" y="55" width="80" height="20" as="geometry" />
        </mxCell>
        <mxCell id="5-9y21-28eGrgCkgJ4F6-66" value="input:" style="text;html=1;align=center;verticalAlign=middle;resizable=0;points=[];autosize=1;strokeColor=none;fillColor=none;fontSize=14;fontFamily=Times New Roman;" vertex="1" parent="5-9y21-28eGrgCkgJ4F6-64">
          <mxGeometry x="15" y="35" width="50" height="20" as="geometry" />
        </mxCell>
        <mxCell id="5-9y21-28eGrgCkgJ4F6-67" value="" style="group" vertex="1" connectable="0" parent="5-9y21-28eGrgCkgJ4F6-64">
          <mxGeometry x="15" y="155" width="140" height="40" as="geometry" />
        </mxCell>
        <mxCell id="5-9y21-28eGrgCkgJ4F6-68" value="bool connect()" style="text;html=1;align=center;verticalAlign=middle;resizable=0;points=[];autosize=1;strokeColor=none;fillColor=none;" vertex="1" parent="5-9y21-28eGrgCkgJ4F6-67">
          <mxGeometry y="20" width="90" height="20" as="geometry" />
        </mxCell>
        <mxCell id="5-9y21-28eGrgCkgJ4F6-69" value="void await_connection()" style="text;html=1;align=center;verticalAlign=middle;resizable=0;points=[];autosize=1;strokeColor=none;fillColor=none;" vertex="1" parent="5-9y21-28eGrgCkgJ4F6-67">
          <mxGeometry width="140" height="20" as="geometry" />
        </mxCell>
        <mxCell id="5-9y21-28eGrgCkgJ4F6-70" value="bool LED (zavor)" style="text;html=1;align=center;verticalAlign=middle;resizable=0;points=[];autosize=1;strokeColor=none;fillColor=none;fontSize=14;fontFamily=Times New Roman;" vertex="1" parent="5-9y21-28eGrgCkgJ4F6-64">
          <mxGeometry x="25" y="100" width="120" height="20" as="geometry" />
        </mxCell>
        <mxCell id="5-9y21-28eGrgCkgJ4F6-71" value="transmission to cloud" style="text;html=1;align=center;verticalAlign=middle;resizable=0;points=[];autosize=1;strokeColor=none;fillColor=none;fontSize=14;fontFamily=Times New Roman;" vertex="1" parent="5-9y21-28eGrgCkgJ4F6-64">
          <mxGeometry x="10" y="195" width="140" height="20" as="geometry" />
        </mxCell>
        <mxCell id="5-9y21-28eGrgCkgJ4F6-72" value="ESP" style="swimlane;" vertex="1" parent="1">
          <mxGeometry x="560" y="260" width="200" height="120" as="geometry" />
        </mxCell>
        <mxCell id="5-9y21-28eGrgCkgJ4F6-73" value="bool connect()" style="text;html=1;align=center;verticalAlign=middle;resizable=0;points=[];autosize=1;strokeColor=none;fillColor=none;" vertex="1" parent="5-9y21-28eGrgCkgJ4F6-72">
          <mxGeometry x="50" y="34" width="90" height="20" as="geometry" />
        </mxCell>
        <mxCell id="5-9y21-28eGrgCkgJ4F6-74" value="Temperature sensor" style="swimlane;" vertex="1" parent="1">
          <mxGeometry x="340" y="260" width="200" height="220" as="geometry" />
        </mxCell>
        <mxCell id="5-9y21-28eGrgCkgJ4F6-75" value="float temp" style="text;html=1;align=center;verticalAlign=middle;resizable=0;points=[];autosize=1;strokeColor=none;fillColor=none;" vertex="1" parent="5-9y21-28eGrgCkgJ4F6-74">
          <mxGeometry x="35" y="110" width="70" height="20" as="geometry" />
        </mxCell>
        <mxCell id="5-9y21-28eGrgCkgJ4F6-76" value="int voltage" style="text;html=1;align=center;verticalAlign=middle;resizable=0;points=[];autosize=1;strokeColor=none;fillColor=none;fontSize=14;fontFamily=Times New Roman;" vertex="1" parent="5-9y21-28eGrgCkgJ4F6-74">
          <mxGeometry x="30" y="60" width="80" height="20" as="geometry" />
        </mxCell>
        <mxCell id="5-9y21-28eGrgCkgJ4F6-77" value="output:" style="text;html=1;align=center;verticalAlign=middle;resizable=0;points=[];autosize=1;strokeColor=none;fillColor=none;fontSize=14;fontFamily=Times New Roman;" vertex="1" parent="5-9y21-28eGrgCkgJ4F6-74">
          <mxGeometry x="10" y="90" width="60" height="20" as="geometry" />
        </mxCell>
        <mxCell id="5-9y21-28eGrgCkgJ4F6-78" value="float volt_to_temp()" style="text;html=1;align=center;verticalAlign=middle;resizable=0;points=[];autosize=1;strokeColor=none;fillColor=none;fontSize=14;fontFamily=Times New Roman;" vertex="1" parent="5-9y21-28eGrgCkgJ4F6-74">
          <mxGeometry x="10" y="160" width="130" height="20" as="geometry" />
        </mxCell>
        <mxCell id="5-9y21-28eGrgCkgJ4F6-79" value="transmission to cloud" style="text;html=1;align=center;verticalAlign=middle;resizable=0;points=[];autosize=1;strokeColor=none;fillColor=none;fontSize=14;fontFamily=Times New Roman;" vertex="1" parent="5-9y21-28eGrgCkgJ4F6-74">
          <mxGeometry x="10" y="190" width="140" height="20" as="geometry" />
        </mxCell>
        <mxCell id="5-9y21-28eGrgCkgJ4F6-80" value="" style="curved=1;endArrow=classic;html=1;rounded=0;" edge="1" parent="1">
          <mxGeometry width="50" height="50" relative="1" as="geometry">
            <mxPoint x="340" y="90" as="sourcePoint" />
            <mxPoint x="210" y="240" as="targetPoint" />
            <Array as="points">
              <mxPoint x="260" y="210" />
            </Array>
          </mxGeometry>
        </mxCell>
        <mxCell id="5-9y21-28eGrgCkgJ4F6-81" value="" style="curved=1;endArrow=classic;html=1;rounded=0;" edge="1" parent="1">
          <mxGeometry width="50" height="50" relative="1" as="geometry">
            <mxPoint x="570" y="110" as="sourcePoint" />
            <mxPoint x="640" y="230" as="targetPoint" />
            <Array as="points">
              <mxPoint x="620" y="110" />
            </Array>
          </mxGeometry>
        </mxCell>
        <mxCell id="5-9y21-28eGrgCkgJ4F6-82" value="LED (lumini)" style="swimlane;startSize=23;" vertex="1" parent="1">
          <mxGeometry x="160" y="520" width="200" height="190" as="geometry" />
        </mxCell>
        <mxCell id="5-9y21-28eGrgCkgJ4F6-83" value="bool state_LED" style="text;html=1;align=center;verticalAlign=middle;resizable=0;points=[];autosize=1;strokeColor=none;fillColor=none;fontSize=14;fontFamily=Times New Roman;" vertex="1" parent="5-9y21-28eGrgCkgJ4F6-82">
          <mxGeometry x="15" y="50" width="100" height="20" as="geometry" />
        </mxCell>
        <mxCell id="5-9y21-28eGrgCkgJ4F6-84" value="output:" style="text;html=1;align=center;verticalAlign=middle;resizable=0;points=[];autosize=1;strokeColor=none;fillColor=none;fontSize=14;fontFamily=Times New Roman;" vertex="1" parent="5-9y21-28eGrgCkgJ4F6-82">
          <mxGeometry y="70" width="60" height="20" as="geometry" />
        </mxCell>
        <mxCell id="5-9y21-28eGrgCkgJ4F6-85" value="" style="group" vertex="1" connectable="0" parent="5-9y21-28eGrgCkgJ4F6-82">
          <mxGeometry x="15" y="140" width="140" height="40" as="geometry" />
        </mxCell>
        <mxCell id="5-9y21-28eGrgCkgJ4F6-86" value="void on_off()" style="text;html=1;align=center;verticalAlign=middle;resizable=0;points=[];autosize=1;strokeColor=none;fillColor=none;" vertex="1" parent="5-9y21-28eGrgCkgJ4F6-85">
          <mxGeometry x="10" width="80" height="20" as="geometry" />
        </mxCell>
        <mxCell id="5-9y21-28eGrgCkgJ4F6-87" value="transmission to cloud" style="text;html=1;align=center;verticalAlign=middle;resizable=0;points=[];autosize=1;strokeColor=none;fillColor=none;fontSize=14;fontFamily=Times New Roman;" vertex="1" parent="5-9y21-28eGrgCkgJ4F6-85">
          <mxGeometry y="20" width="140" height="20" as="geometry" />
        </mxCell>
        <mxCell id="5-9y21-28eGrgCkgJ4F6-88" value="LED (valve de caldura)" style="swimlane;" vertex="1" parent="1">
          <mxGeometry x="425" y="520" width="200" height="230" as="geometry" />
        </mxCell>
        <mxCell id="5-9y21-28eGrgCkgJ4F6-89" value="input:" style="text;html=1;align=center;verticalAlign=middle;resizable=0;points=[];autosize=1;strokeColor=none;fillColor=none;fontSize=14;fontFamily=Times New Roman;" vertex="1" parent="5-9y21-28eGrgCkgJ4F6-88">
          <mxGeometry y="30" width="50" height="20" as="geometry" />
        </mxCell>
        <mxCell id="5-9y21-28eGrgCkgJ4F6-90" value="output:" style="text;html=1;align=center;verticalAlign=middle;resizable=0;points=[];autosize=1;strokeColor=none;fillColor=none;fontSize=14;fontFamily=Times New Roman;" vertex="1" parent="5-9y21-28eGrgCkgJ4F6-88">
          <mxGeometry y="80" width="60" height="20" as="geometry" />
        </mxCell>
        <mxCell id="5-9y21-28eGrgCkgJ4F6-91" value="float temp 2" style="text;html=1;align=center;verticalAlign=middle;resizable=0;points=[];autosize=1;strokeColor=none;fillColor=none;fontSize=14;fontFamily=Times New Roman;" vertex="1" parent="5-9y21-28eGrgCkgJ4F6-88">
          <mxGeometry x="50" y="60" width="80" height="20" as="geometry" />
        </mxCell>
        <mxCell id="5-9y21-28eGrgCkgJ4F6-92" value="float temp1" style="text;html=1;align=center;verticalAlign=middle;resizable=0;points=[];autosize=1;strokeColor=none;fillColor=none;fontSize=14;fontFamily=Times New Roman;" vertex="1" parent="5-9y21-28eGrgCkgJ4F6-88">
          <mxGeometry x="50" y="40" width="80" height="20" as="geometry" />
        </mxCell>
        <mxCell id="5-9y21-28eGrgCkgJ4F6-93" value="LED3 on/off" style="text;html=1;align=center;verticalAlign=middle;resizable=0;points=[];autosize=1;strokeColor=none;fillColor=none;fontSize=14;fontFamily=Times New Roman;" vertex="1" parent="5-9y21-28eGrgCkgJ4F6-88">
          <mxGeometry x="25" y="120" width="90" height="20" as="geometry" />
        </mxCell>
        <mxCell id="5-9y21-28eGrgCkgJ4F6-94" value="" style="group" vertex="1" connectable="0" parent="5-9y21-28eGrgCkgJ4F6-88">
          <mxGeometry x="20" y="180" width="140" height="40" as="geometry" />
        </mxCell>
        <mxCell id="5-9y21-28eGrgCkgJ4F6-95" value="void temp_regulation()&lt;br&gt;" style="text;html=1;align=center;verticalAlign=middle;resizable=0;points=[];autosize=1;strokeColor=none;fillColor=none;" vertex="1" parent="5-9y21-28eGrgCkgJ4F6-94">
          <mxGeometry width="130" height="20" as="geometry" />
        </mxCell>
        <mxCell id="5-9y21-28eGrgCkgJ4F6-96" value="transmission to cloud" style="text;html=1;align=center;verticalAlign=middle;resizable=0;points=[];autosize=1;strokeColor=none;fillColor=none;fontSize=14;fontFamily=Times New Roman;" vertex="1" parent="5-9y21-28eGrgCkgJ4F6-94">
          <mxGeometry y="20" width="140" height="20" as="geometry" />
        </mxCell>
        <mxCell id="5-9y21-28eGrgCkgJ4F6-97" value="output:" style="text;html=1;align=center;verticalAlign=middle;resizable=0;points=[];autosize=1;strokeColor=none;fillColor=none;fontSize=14;fontFamily=Times New Roman;" vertex="1" parent="1">
          <mxGeometry x="120" y="340" width="60" height="20" as="geometry" />
        </mxCell>
        <mxCell id="5-9y21-28eGrgCkgJ4F6-98" value="input:" style="text;html=1;align=center;verticalAlign=middle;resizable=0;points=[];autosize=1;strokeColor=none;fillColor=none;fontSize=14;fontFamily=Times New Roman;" vertex="1" parent="1">
          <mxGeometry x="345" y="310" width="50" height="20" as="geometry" />
        </mxCell>
        <mxCell id="5-9y21-28eGrgCkgJ4F6-99" value="input:" style="text;html=1;align=center;verticalAlign=middle;resizable=0;points=[];autosize=1;strokeColor=none;fillColor=none;fontSize=14;fontFamily=Times New Roman;" vertex="1" parent="1">
          <mxGeometry x="165" y="550" width="50" height="20" as="geometry" />
        </mxCell>
        <mxCell id="5-9y21-28eGrgCkgJ4F6-100" value="LED1 on/off" style="text;html=1;align=center;verticalAlign=middle;resizable=0;points=[];autosize=1;strokeColor=none;fillColor=none;fontSize=14;fontFamily=Times New Roman;" vertex="1" parent="1">
          <mxGeometry x="185" y="610" width="90" height="20" as="geometry" />
        </mxCell>
        <mxCell id="5-9y21-28eGrgCkgJ4F6-101" value="LED2 on/off" style="text;html=1;align=center;verticalAlign=middle;resizable=0;points=[];autosize=1;strokeColor=none;fillColor=none;fontSize=14;fontFamily=Times New Roman;" vertex="1" parent="1">
          <mxGeometry x="445" y="620" width="90" height="20" as="geometry" />
        </mxCell>
        <mxCell id="5-9y21-28eGrgCkgJ4F6-102" value="&lt;span style=&quot;color: rgba(0 , 0 , 0 , 0) ; font-family: monospace ; font-size: 0px&quot;&gt;%3CmxGraphModel%3E%3Croot%3E%3CmxCell%20id%3D%220%22%2F%3E%3CmxCell%20id%3D%221%22%20parent%3D%220%22%2F%3E%3CmxCell%20id%3D%222%22%20value%3D%22transmission%20to%20cloud%22%20style%3D%22text%3Bhtml%3D1%3Balign%3Dcenter%3BverticalAlign%3Dmiddle%3Bresizable%3D0%3Bpoints%3D%5B%5D%3Bautosize%3D1%3BstrokeColor%3Dnone%3BfillColor%3Dnone%3BfontSize%3D14%3BfontFamily%3DTimes%20New%20Roman%3B%22%20vertex%3D%221%22%20parent%3D%221%22%3E%3CmxGeometry%20x%3D%22130%22%20y%3D%22450%22%20width%3D%22140%22%20height%3D%2220%22%20as%3D%22geometry%22%2F%3E%3C%2FmxCell%3E%3C%2Froot%3E%3C%2FmxGraphModel%3E&lt;/span&gt;" style="text;html=1;align=center;verticalAlign=middle;resizable=0;points=[];autosize=1;strokeColor=none;fillColor=none;fontSize=14;fontFamily=Times New Roman;" vertex="1" parent="1">
          <mxGeometry x="360" y="445" width="20" height="30" as="geometry" />
        </mxCell>
        <mxCell id="5-9y21-28eGrgCkgJ4F6-103" value="" style="shape=table;html=1;whiteSpace=wrap;startSize=0;container=1;collapsible=0;childLayout=tableLayout;" vertex="1" parent="1">
          <mxGeometry x="870" y="160" width="370" height="134" as="geometry" />
        </mxCell>
        <mxCell id="5-9y21-28eGrgCkgJ4F6-104" value="" style="shape=tableRow;horizontal=0;startSize=0;swimlaneHead=0;swimlaneBody=0;top=0;left=0;bottom=0;right=0;collapsible=0;dropTarget=0;fillColor=none;points=[[0,0.5],[1,0.5]];portConstraint=eastwest;" vertex="1" parent="5-9y21-28eGrgCkgJ4F6-103">
          <mxGeometry width="370" height="27" as="geometry" />
        </mxCell>
        <mxCell id="5-9y21-28eGrgCkgJ4F6-105" value="Schedule" style="shape=partialRectangle;html=1;whiteSpace=wrap;connectable=0;fillColor=none;top=0;left=0;bottom=0;right=0;overflow=hidden;rowspan=1;colspan=2;" vertex="1" parent="5-9y21-28eGrgCkgJ4F6-104">
          <mxGeometry width="177" height="27" as="geometry">
            <mxRectangle width="88" height="27" as="alternateBounds" />
          </mxGeometry>
        </mxCell>
        <mxCell id="5-9y21-28eGrgCkgJ4F6-106" value="Schedule" style="shape=partialRectangle;html=1;whiteSpace=wrap;connectable=0;fillColor=none;top=0;left=0;bottom=0;right=0;overflow=hidden;" vertex="1" visible="0" parent="5-9y21-28eGrgCkgJ4F6-104">
          <mxGeometry x="88" width="89" height="27" as="geometry">
            <mxRectangle width="89" height="27" as="alternateBounds" />
          </mxGeometry>
        </mxCell>
        <mxCell id="5-9y21-28eGrgCkgJ4F6-107" value="Current Data" style="shape=partialRectangle;html=1;whiteSpace=wrap;connectable=0;fillColor=none;top=0;left=0;bottom=0;right=0;overflow=hidden;" vertex="1" parent="5-9y21-28eGrgCkgJ4F6-104">
          <mxGeometry x="177" width="105" height="27" as="geometry">
            <mxRectangle width="105" height="27" as="alternateBounds" />
          </mxGeometry>
        </mxCell>
        <mxCell id="5-9y21-28eGrgCkgJ4F6-108" value="Difference" style="shape=partialRectangle;html=1;whiteSpace=wrap;connectable=0;fillColor=none;top=0;left=0;bottom=0;right=0;overflow=hidden;" vertex="1" parent="5-9y21-28eGrgCkgJ4F6-104">
          <mxGeometry x="282" width="88" height="27" as="geometry">
            <mxRectangle width="88" height="27" as="alternateBounds" />
          </mxGeometry>
        </mxCell>
        <mxCell id="5-9y21-28eGrgCkgJ4F6-109" value="" style="shape=tableRow;horizontal=0;startSize=0;swimlaneHead=0;swimlaneBody=0;top=0;left=0;bottom=0;right=0;collapsible=0;dropTarget=0;fillColor=none;points=[[0,0.5],[1,0.5]];portConstraint=eastwest;" vertex="1" parent="5-9y21-28eGrgCkgJ4F6-103">
          <mxGeometry y="27" width="370" height="26" as="geometry" />
        </mxCell>
        <mxCell id="5-9y21-28eGrgCkgJ4F6-110" value="10" style="shape=partialRectangle;html=1;whiteSpace=wrap;connectable=0;fillColor=none;top=0;left=0;bottom=0;right=0;overflow=hidden;" vertex="1" parent="5-9y21-28eGrgCkgJ4F6-109">
          <mxGeometry width="88" height="26" as="geometry">
            <mxRectangle width="88" height="26" as="alternateBounds" />
          </mxGeometry>
        </mxCell>
        <mxCell id="5-9y21-28eGrgCkgJ4F6-111" value="22" style="shape=partialRectangle;html=1;whiteSpace=wrap;connectable=0;fillColor=none;top=0;left=0;bottom=0;right=0;overflow=hidden;" vertex="1" parent="5-9y21-28eGrgCkgJ4F6-109">
          <mxGeometry x="88" width="89" height="26" as="geometry">
            <mxRectangle width="89" height="26" as="alternateBounds" />
          </mxGeometry>
        </mxCell>
        <mxCell id="5-9y21-28eGrgCkgJ4F6-112" value="21" style="shape=partialRectangle;html=1;whiteSpace=wrap;connectable=0;fillColor=none;top=0;left=0;bottom=0;right=0;overflow=hidden;" vertex="1" parent="5-9y21-28eGrgCkgJ4F6-109">
          <mxGeometry x="177" width="105" height="26" as="geometry">
            <mxRectangle width="105" height="26" as="alternateBounds" />
          </mxGeometry>
        </mxCell>
        <mxCell id="5-9y21-28eGrgCkgJ4F6-113" value="1" style="shape=partialRectangle;html=1;whiteSpace=wrap;connectable=0;fillColor=none;top=0;left=0;bottom=0;right=0;overflow=hidden;" vertex="1" parent="5-9y21-28eGrgCkgJ4F6-109">
          <mxGeometry x="282" width="88" height="26" as="geometry">
            <mxRectangle width="88" height="26" as="alternateBounds" />
          </mxGeometry>
        </mxCell>
        <mxCell id="5-9y21-28eGrgCkgJ4F6-114" value="" style="shape=tableRow;horizontal=0;startSize=0;swimlaneHead=0;swimlaneBody=0;top=0;left=0;bottom=0;right=0;collapsible=0;dropTarget=0;fillColor=none;points=[[0,0.5],[1,0.5]];portConstraint=eastwest;" vertex="1" parent="5-9y21-28eGrgCkgJ4F6-103">
          <mxGeometry y="53" width="370" height="27" as="geometry" />
        </mxCell>
        <mxCell id="5-9y21-28eGrgCkgJ4F6-115" value="11" style="shape=partialRectangle;html=1;whiteSpace=wrap;connectable=0;fillColor=none;top=0;left=0;bottom=0;right=0;overflow=hidden;" vertex="1" parent="5-9y21-28eGrgCkgJ4F6-114">
          <mxGeometry width="88" height="27" as="geometry">
            <mxRectangle width="88" height="27" as="alternateBounds" />
          </mxGeometry>
        </mxCell>
        <mxCell id="5-9y21-28eGrgCkgJ4F6-116" value="22" style="shape=partialRectangle;html=1;whiteSpace=wrap;connectable=0;fillColor=none;top=0;left=0;bottom=0;right=0;overflow=hidden;" vertex="1" parent="5-9y21-28eGrgCkgJ4F6-114">
          <mxGeometry x="88" width="89" height="27" as="geometry">
            <mxRectangle width="89" height="27" as="alternateBounds" />
          </mxGeometry>
        </mxCell>
        <mxCell id="5-9y21-28eGrgCkgJ4F6-117" value="22" style="shape=partialRectangle;html=1;whiteSpace=wrap;connectable=0;fillColor=none;top=0;left=0;bottom=0;right=0;overflow=hidden;pointerEvents=1;" vertex="1" parent="5-9y21-28eGrgCkgJ4F6-114">
          <mxGeometry x="177" width="105" height="27" as="geometry">
            <mxRectangle width="105" height="27" as="alternateBounds" />
          </mxGeometry>
        </mxCell>
        <mxCell id="5-9y21-28eGrgCkgJ4F6-118" value="0" style="shape=partialRectangle;html=1;whiteSpace=wrap;connectable=0;fillColor=none;top=0;left=0;bottom=0;right=0;overflow=hidden;pointerEvents=1;" vertex="1" parent="5-9y21-28eGrgCkgJ4F6-114">
          <mxGeometry x="282" width="88" height="27" as="geometry">
            <mxRectangle width="88" height="27" as="alternateBounds" />
          </mxGeometry>
        </mxCell>
        <mxCell id="5-9y21-28eGrgCkgJ4F6-119" style="shape=tableRow;horizontal=0;startSize=0;swimlaneHead=0;swimlaneBody=0;top=0;left=0;bottom=0;right=0;collapsible=0;dropTarget=0;fillColor=none;points=[[0,0.5],[1,0.5]];portConstraint=eastwest;" vertex="1" parent="5-9y21-28eGrgCkgJ4F6-103">
          <mxGeometry y="80" width="370" height="27" as="geometry" />
        </mxCell>
        <mxCell id="5-9y21-28eGrgCkgJ4F6-120" value="12" style="shape=partialRectangle;html=1;whiteSpace=wrap;connectable=0;fillColor=none;top=0;left=0;bottom=0;right=0;overflow=hidden;" vertex="1" parent="5-9y21-28eGrgCkgJ4F6-119">
          <mxGeometry width="88" height="27" as="geometry">
            <mxRectangle width="88" height="27" as="alternateBounds" />
          </mxGeometry>
        </mxCell>
        <mxCell id="5-9y21-28eGrgCkgJ4F6-121" value="23" style="shape=partialRectangle;html=1;whiteSpace=wrap;connectable=0;fillColor=none;top=0;left=0;bottom=0;right=0;overflow=hidden;" vertex="1" parent="5-9y21-28eGrgCkgJ4F6-119">
          <mxGeometry x="88" width="89" height="27" as="geometry">
            <mxRectangle width="89" height="27" as="alternateBounds" />
          </mxGeometry>
        </mxCell>
        <mxCell id="5-9y21-28eGrgCkgJ4F6-122" value="22" style="shape=partialRectangle;html=1;whiteSpace=wrap;connectable=0;fillColor=none;top=0;left=0;bottom=0;right=0;overflow=hidden;pointerEvents=1;" vertex="1" parent="5-9y21-28eGrgCkgJ4F6-119">
          <mxGeometry x="177" width="105" height="27" as="geometry">
            <mxRectangle width="105" height="27" as="alternateBounds" />
          </mxGeometry>
        </mxCell>
        <mxCell id="5-9y21-28eGrgCkgJ4F6-123" value="1" style="shape=partialRectangle;html=1;whiteSpace=wrap;connectable=0;fillColor=none;top=0;left=0;bottom=0;right=0;overflow=hidden;pointerEvents=1;" vertex="1" parent="5-9y21-28eGrgCkgJ4F6-119">
          <mxGeometry x="282" width="88" height="27" as="geometry">
            <mxRectangle width="88" height="27" as="alternateBounds" />
          </mxGeometry>
        </mxCell>
        <mxCell id="5-9y21-28eGrgCkgJ4F6-124" style="shape=tableRow;horizontal=0;startSize=0;swimlaneHead=0;swimlaneBody=0;top=0;left=0;bottom=0;right=0;collapsible=0;dropTarget=0;fillColor=none;points=[[0,0.5],[1,0.5]];portConstraint=eastwest;" vertex="1" parent="5-9y21-28eGrgCkgJ4F6-103">
          <mxGeometry y="107" width="370" height="27" as="geometry" />
        </mxCell>
        <mxCell id="5-9y21-28eGrgCkgJ4F6-125" value="13" style="shape=partialRectangle;html=1;whiteSpace=wrap;connectable=0;fillColor=none;top=0;left=0;bottom=0;right=0;overflow=hidden;" vertex="1" parent="5-9y21-28eGrgCkgJ4F6-124">
          <mxGeometry width="88" height="27" as="geometry">
            <mxRectangle width="88" height="27" as="alternateBounds" />
          </mxGeometry>
        </mxCell>
        <mxCell id="5-9y21-28eGrgCkgJ4F6-126" value="24" style="shape=partialRectangle;html=1;whiteSpace=wrap;connectable=0;fillColor=none;top=0;left=0;bottom=0;right=0;overflow=hidden;" vertex="1" parent="5-9y21-28eGrgCkgJ4F6-124">
          <mxGeometry x="88" width="89" height="27" as="geometry">
            <mxRectangle width="89" height="27" as="alternateBounds" />
          </mxGeometry>
        </mxCell>
        <mxCell id="5-9y21-28eGrgCkgJ4F6-127" value="25" style="shape=partialRectangle;html=1;whiteSpace=wrap;connectable=0;fillColor=none;top=0;left=0;bottom=0;right=0;overflow=hidden;pointerEvents=1;" vertex="1" parent="5-9y21-28eGrgCkgJ4F6-124">
          <mxGeometry x="177" width="105" height="27" as="geometry">
            <mxRectangle width="105" height="27" as="alternateBounds" />
          </mxGeometry>
        </mxCell>
        <mxCell id="5-9y21-28eGrgCkgJ4F6-128" value="-1" style="shape=partialRectangle;html=1;whiteSpace=wrap;connectable=0;fillColor=none;top=0;left=0;bottom=0;right=0;overflow=hidden;pointerEvents=1;" vertex="1" parent="5-9y21-28eGrgCkgJ4F6-124">
          <mxGeometry x="282" width="88" height="27" as="geometry">
            <mxRectangle width="88" height="27" as="alternateBounds" />
          </mxGeometry>
        </mxCell>
        <mxCell id="5-9y21-28eGrgCkgJ4F6-129" value="&lt;b&gt;&lt;font face=&quot;Times New Roman&quot; style=&quot;font-size: 14px&quot;&gt;Exemplu de reglare cu histerezis&lt;/font&gt;&lt;/b&gt;" style="text;html=1;strokeColor=none;fillColor=none;align=center;verticalAlign=middle;whiteSpace=wrap;rounded=0;" vertex="1" parent="1">
          <mxGeometry x="1000" y="120" width="200" height="30" as="geometry" />
        </mxCell>
        <mxCell id="5-9y21-28eGrgCkgJ4F6-130" value="" style="swimlane;startSize=0;fontFamily=Times New Roman;fontSize=14;" vertex="1" parent="1">
          <mxGeometry x="870" y="310" width="490" height="110" as="geometry" />
        </mxCell>
        <mxCell id="5-9y21-28eGrgCkgJ4F6-131" value="&lt;table class=&quot;highlight tab-size js-file-line-container js-code-nav-container js-tagsearch-file&quot; style=&quot;padding: 0px ; margin: 0px ; font-family: , , &amp;#34;sf mono&amp;#34; , &amp;#34;menlo&amp;#34; , &amp;#34;consolas&amp;#34; , &amp;#34;liberation mono&amp;#34; , monospace ; font-size: 12px ; line-height: 1.4 ; color: rgb(51 , 51 , 51) ; border: 0px ; border-collapse: collapse ; text-align: left&quot;&gt;&lt;tbody&gt;&lt;tr&gt;&lt;td id=&quot;file-arduino_bluetooth_part2-ino-L15&quot; class=&quot;blob-num js-line-number js-code-nav-line-number js-blob-rnum&quot; style=&quot;position: relative ; width: 13.2031px ; min-width: inherit ; line-height: 20px ; text-align: right ; vertical-align: top ; cursor: pointer ; background: rgba(0 , 0 , 0 , 0) ; padding: 1px 10px&quot;&gt;&lt;/td&gt;&lt;td id=&quot;file-arduino_bluetooth_part2-ino-LC15&quot; class=&quot;blob-code blob-code-inner js-file-line&quot; style=&quot;position: relative ; line-height: 20px ; vertical-align: top ; overflow: visible ; overflow-wrap: normal ; background: rgba(0 , 0 , 0 , 0) ; border: 0px ; padding: 1px 10px&quot;&gt;  &lt;span class=&quot;pl-k&quot; style=&quot;color: rgb(215 , 58 , 73)&quot;&gt;if&lt;/span&gt; (Serial.&lt;span class=&quot;pl-c1&quot; style=&quot;color: rgb(0 , 92 , 197)&quot;&gt;available&lt;/span&gt;() &amp;gt; &lt;span class=&quot;pl-c1&quot; style=&quot;color: rgb(0 , 92 , 197)&quot;&gt;0&lt;/span&gt;){ &lt;span class=&quot;pl-c&quot; style=&quot;color: rgb(106 , 115 , 125)&quot;&gt;&lt;span class=&quot;pl-c&quot;&gt;//&lt;/span&gt; Check if there is data coming&lt;/span&gt;&lt;/td&gt;&lt;/tr&gt;&lt;tr style=&quot;background-color: transparent&quot;&gt;&lt;td id=&quot;file-arduino_bluetooth_part2-ino-L16&quot; class=&quot;blob-num js-line-number js-code-nav-line-number js-blob-rnum&quot; style=&quot;position: relative ; width: 13.2031px ; min-width: inherit ; line-height: 20px ; text-align: right ; vertical-align: top ; cursor: pointer ; background: rgba(0 , 0 , 0 , 0) ; padding: 1px 10px&quot;&gt;&lt;/td&gt;&lt;td id=&quot;file-arduino_bluetooth_part2-ino-LC16&quot; class=&quot;blob-code blob-code-inner js-file-line&quot; style=&quot;position: relative ; line-height: 20px ; vertical-align: top ; overflow: visible ; overflow-wrap: normal ; background: rgba(0 , 0 , 0 , 0) ; border: 0px ; padding: 1px 10px&quot;&gt;    msg = Serial.&lt;span class=&quot;pl-c1&quot; style=&quot;color: rgb(0 , 92 , 197)&quot;&gt;readString&lt;/span&gt;(); &lt;span class=&quot;pl-c&quot; style=&quot;color: rgb(106 , 115 , 125)&quot;&gt;&lt;span class=&quot;pl-c&quot;&gt;//&lt;/span&gt; Read the message as String&lt;/span&gt;&lt;/td&gt;&lt;/tr&gt;&lt;tr&gt;&lt;td id=&quot;file-arduino_bluetooth_part2-ino-L17&quot; class=&quot;blob-num js-line-number js-code-nav-line-number js-blob-rnum&quot; style=&quot;position: relative ; width: 13.2031px ; min-width: inherit ; line-height: 20px ; text-align: right ; vertical-align: top ; cursor: pointer ; background: rgba(0 , 0 , 0 , 0) ; padding: 1px 10px&quot;&gt;&lt;/td&gt;&lt;td id=&quot;file-arduino_bluetooth_part2-ino-LC17&quot; class=&quot;blob-code blob-code-inner js-file-line&quot; style=&quot;position: relative ; line-height: 20px ; vertical-align: top ; overflow: visible ; overflow-wrap: normal ; background: rgba(0 , 0 , 0 , 0) ; border: 0px ; padding: 1px 10px&quot;&gt;    Serial.&lt;span class=&quot;pl-c1&quot; style=&quot;color: rgb(0 , 92 , 197)&quot;&gt;println&lt;/span&gt;(&lt;span class=&quot;pl-s&quot; style=&quot;color: rgb(3 , 47 , 98)&quot;&gt;&lt;span class=&quot;pl-pds&quot;&gt;&quot;&lt;/span&gt;Android Command: &lt;span class=&quot;pl-pds&quot;&gt;&quot;&lt;/span&gt;&lt;/span&gt; + msg);&lt;/td&gt;&lt;/tr&gt;&lt;tr style=&quot;background-color: transparent&quot;&gt;&lt;td id=&quot;file-arduino_bluetooth_part2-ino-L18&quot; class=&quot;blob-num js-line-number js-code-nav-line-number js-blob-rnum&quot; style=&quot;position: relative ; width: 13.2031px ; min-width: inherit ; line-height: 20px ; text-align: right ; vertical-align: top ; cursor: pointer ; background: rgba(0 , 0 , 0 , 0) ; padding: 1px 10px&quot;&gt;&lt;/td&gt;&lt;td id=&quot;file-arduino_bluetooth_part2-ino-LC18&quot; class=&quot;blob-code blob-code-inner js-file-line&quot; style=&quot;position: relative ; line-height: 20px ; vertical-align: top ; overflow: visible ; overflow-wrap: normal ; background: rgba(0 , 0 , 0 , 0) ; border: 0px ; padding: 1px 10px&quot;&gt;  }&lt;/td&gt;&lt;/tr&gt;&lt;/tbody&gt;&lt;/table&gt;" style="text;html=1;align=center;verticalAlign=middle;resizable=0;points=[];autosize=1;strokeColor=none;fillColor=none;fontSize=14;fontFamily=Times New Roman;" vertex="1" parent="5-9y21-28eGrgCkgJ4F6-130">
          <mxGeometry x="10" y="15" width="350" height="90" as="geometry" />
        </mxCell>
        <mxCell id="5-9y21-28eGrgCkgJ4F6-132" value="&lt;table class=&quot;highlight tab-size js-file-line-container js-code-nav-container js-tagsearch-file&quot; style=&quot;padding: 0px ; margin: 0px ; font-size: 12px ; font-weight: 400 ; line-height: 1.4 ; color: rgb(51 , 51 , 51) ; border: 0px ; border-collapse: collapse ; font-style: normal ; letter-spacing: normal ; text-align: left ; text-transform: none ; word-spacing: 0px&quot;&gt;&lt;tbody&gt;&lt;tr&gt;&lt;td id=&quot;file-arduino_bluetooth_part2-ino-LC1&quot; class=&quot;blob-code blob-code-inner js-file-line&quot; style=&quot;position: relative ; padding: 4px 10px 1px ; line-height: 20px ; vertical-align: top ; overflow: visible ; font-size: 12px ; overflow-wrap: normal ; text-align: left ; background: rgba(0 , 0 , 0 , 0) ; border: 0px&quot;&gt;&lt;br&gt;&lt;/td&gt;&lt;/tr&gt;&lt;tr style=&quot;background-color: transparent&quot;&gt;&lt;td id=&quot;file-arduino_bluetooth_part2-ino-L2&quot; class=&quot;blob-num js-line-number js-code-nav-line-number js-blob-rnum&quot; style=&quot;position: relative ; width: 13.2031px ; min-width: inherit ; padding: 1px 10px ; font-size: 12px ; line-height: 20px ; text-align: right ; vertical-align: top ; cursor: pointer ; background: rgba(0 , 0 , 0 , 0)&quot;&gt;&lt;/td&gt;&lt;td id=&quot;file-arduino_bluetooth_part2-ino-LC2&quot; class=&quot;blob-code blob-code-inner js-file-line&quot; style=&quot;position: relative ; padding: 1px 10px ; line-height: 20px ; vertical-align: top ; overflow: visible ; font-size: 12px ; overflow-wrap: normal ; text-align: left ; background: rgba(0 , 0 , 0 , 0) ; border: 0px&quot;&gt;&lt;br style=&quot;color: rgb(0 , 0 , 0) ; font-size: 14px ; text-align: center&quot;&gt;&lt;table class=&quot;highlight tab-size js-file-line-container js-code-nav-container js-tagsearch-file&quot; style=&quot;padding: 0px ; margin: 0px ; line-height: 1.4 ; border: 0px ; border-collapse: collapse&quot;&gt;&lt;tbody&gt;&lt;tr&gt;&lt;td id=&quot;file-arduino_bluetooth_part2-ino-LC1&quot; class=&quot;blob-code blob-code-inner js-file-line&quot; style=&quot;position: relative ; padding: 4px 10px 1px ; line-height: 20px ; vertical-align: top ; overflow: visible ; overflow-wrap: normal ; background: rgba(0 , 0 , 0 , 0) ; border: 0px&quot;&gt;&lt;span class=&quot;pl-k&quot; style=&quot;color: rgb(215 , 58 , 73)&quot;&gt;const&lt;/span&gt;&amp;nbsp;&lt;span class=&quot;pl-k&quot; style=&quot;color: rgb(215 , 58 , 73)&quot;&gt;int&lt;/span&gt;&amp;nbsp;ledPin =&amp;nbsp;&lt;span class=&quot;pl-c1&quot; style=&quot;color: rgb(0 , 92 , 197)&quot;&gt;13&lt;/span&gt;;&amp;nbsp;&lt;span class=&quot;pl-c&quot; style=&quot;color: rgb(106 , 115 , 125)&quot;&gt;&lt;span class=&quot;pl-c&quot;&gt;//&lt;/span&gt;&amp;nbsp;Built in LED in Arduino board&lt;/span&gt;&lt;/td&gt;&lt;/tr&gt;&lt;/tbody&gt;&lt;/table&gt;String msg,cmd;&lt;/td&gt;&lt;/tr&gt;&lt;tr&gt;&lt;td id=&quot;file-arduino_bluetooth_part2-ino-L3&quot; class=&quot;blob-num js-line-number js-code-nav-line-number js-blob-rnum&quot; style=&quot;position: relative ; width: 13.2031px ; min-width: inherit ; padding: 1px 10px ; font-size: 12px ; line-height: 20px ; text-align: right ; vertical-align: top ; cursor: pointer ; background: rgba(0 , 0 , 0 , 0)&quot;&gt;&lt;/td&gt;&lt;td id=&quot;file-arduino_bluetooth_part2-ino-LC3&quot; class=&quot;blob-code blob-code-inner js-file-line&quot; style=&quot;position: relative ; padding: 1px 10px ; line-height: 20px ; vertical-align: top ; overflow: visible ; font-size: 12px ; overflow-wrap: normal ; text-align: left ; background: rgba(0 , 0 , 0 , 0) ; border: 0px&quot;&gt;&lt;br&gt;&lt;/td&gt;&lt;/tr&gt;&lt;tr style=&quot;background-color: transparent&quot;&gt;&lt;td id=&quot;file-arduino_bluetooth_part2-ino-L4&quot; class=&quot;blob-num js-line-number js-code-nav-line-number js-blob-rnum&quot; style=&quot;position: relative ; width: 13.2031px ; min-width: inherit ; padding: 1px 10px ; font-size: 12px ; line-height: 20px ; text-align: right ; vertical-align: top ; cursor: pointer ; background: rgba(0 , 0 , 0 , 0)&quot;&gt;&lt;/td&gt;&lt;td id=&quot;file-arduino_bluetooth_part2-ino-LC4&quot; class=&quot;blob-code blob-code-inner js-file-line&quot; style=&quot;position: relative ; padding: 1px 10px ; line-height: 20px ; vertical-align: top ; overflow: visible ; font-size: 12px ; overflow-wrap: normal ; text-align: left ; background: rgba(0 , 0 , 0 , 0) ; border: 0px&quot;&gt;&lt;span class=&quot;pl-k&quot; style=&quot;color: rgb(215 , 58 , 73)&quot;&gt;void&lt;/span&gt; &lt;span class=&quot;pl-en&quot; style=&quot;color: rgb(111 , 66 , 193)&quot;&gt;setup&lt;/span&gt;() {&lt;/td&gt;&lt;/tr&gt;&lt;tr&gt;&lt;td id=&quot;file-arduino_bluetooth_part2-ino-L5&quot; class=&quot;blob-num js-line-number js-code-nav-line-number js-blob-rnum&quot; style=&quot;position: relative ; width: 13.2031px ; min-width: inherit ; padding: 1px 10px ; font-size: 12px ; line-height: 20px ; text-align: right ; vertical-align: top ; cursor: pointer ; background: rgba(0 , 0 , 0 , 0)&quot;&gt;&lt;/td&gt;&lt;td id=&quot;file-arduino_bluetooth_part2-ino-LC5&quot; class=&quot;blob-code blob-code-inner js-file-line&quot; style=&quot;position: relative ; padding: 1px 10px ; line-height: 20px ; vertical-align: top ; overflow: visible ; font-size: 12px ; overflow-wrap: normal ; text-align: left ; background: rgba(0 , 0 , 0 , 0) ; border: 0px&quot;&gt;  &lt;span class=&quot;pl-c&quot; style=&quot;color: rgb(106 , 115 , 125)&quot;&gt;&lt;span class=&quot;pl-c&quot; style=&quot;color: rgb(106 , 115 , 125)&quot;&gt;//&lt;/span&gt; Initialization&lt;/span&gt;&lt;/td&gt;&lt;/tr&gt;&lt;tr style=&quot;background-color: transparent&quot;&gt;&lt;td id=&quot;file-arduino_bluetooth_part2-ino-L6&quot; class=&quot;blob-num js-line-number js-code-nav-line-number js-blob-rnum&quot; style=&quot;position: relative ; width: 13.2031px ; min-width: inherit ; padding: 1px 10px ; font-size: 12px ; line-height: 20px ; text-align: right ; vertical-align: top ; cursor: pointer ; background: rgba(0 , 0 , 0 , 0)&quot;&gt;&lt;/td&gt;&lt;td id=&quot;file-arduino_bluetooth_part2-ino-LC6&quot; class=&quot;blob-code blob-code-inner js-file-line&quot; style=&quot;position: relative ; padding: 1px 10px ; line-height: 20px ; vertical-align: top ; overflow: visible ; font-size: 12px ; overflow-wrap: normal ; text-align: left ; background: rgba(0 , 0 , 0 , 0) ; border: 0px&quot;&gt;  &lt;span class=&quot;pl-c1&quot; style=&quot;color: rgb(0 , 92 , 197)&quot;&gt;pinMode&lt;/span&gt;(ledPin, OUTPUT);&lt;/td&gt;&lt;/tr&gt;&lt;tr&gt;&lt;td id=&quot;file-arduino_bluetooth_part2-ino-L7&quot; class=&quot;blob-num js-line-number js-code-nav-line-number js-blob-rnum&quot; style=&quot;position: relative ; width: 13.2031px ; min-width: inherit ; padding: 1px 10px ; font-size: 12px ; line-height: 20px ; text-align: right ; vertical-align: top ; cursor: pointer ; background: rgba(0 , 0 , 0 , 0)&quot;&gt;&lt;/td&gt;&lt;td id=&quot;file-arduino_bluetooth_part2-ino-LC7&quot; class=&quot;blob-code blob-code-inner js-file-line&quot; style=&quot;position: relative ; padding: 1px 10px ; line-height: 20px ; vertical-align: top ; overflow: visible ; font-size: 12px ; overflow-wrap: normal ; text-align: left ; background: rgba(0 , 0 , 0 , 0) ; border: 0px&quot;&gt;  &lt;span class=&quot;pl-c1&quot; style=&quot;color: rgb(0 , 92 , 197)&quot;&gt;digitalWrite&lt;/span&gt;(ledPin, LOW);&lt;/td&gt;&lt;/tr&gt;&lt;tr style=&quot;background-color: transparent&quot;&gt;&lt;td id=&quot;file-arduino_bluetooth_part2-ino-L8&quot; class=&quot;blob-num js-line-number js-code-nav-line-number js-blob-rnum&quot; style=&quot;position: relative ; width: 13.2031px ; min-width: inherit ; padding: 1px 10px ; font-size: 12px ; line-height: 20px ; text-align: right ; vertical-align: top ; cursor: pointer ; background: rgba(0 , 0 , 0 , 0)&quot;&gt;&lt;/td&gt;&lt;td id=&quot;file-arduino_bluetooth_part2-ino-LC8&quot; class=&quot;blob-code blob-code-inner js-file-line&quot; style=&quot;position: relative ; padding: 1px 10px ; line-height: 20px ; vertical-align: top ; overflow: visible ; font-size: 12px ; overflow-wrap: normal ; text-align: left ; background: rgba(0 , 0 , 0 , 0) ; border: 0px&quot;&gt;  Serial.&lt;span class=&quot;pl-c1&quot; style=&quot;color: rgb(0 , 92 , 197)&quot;&gt;begin&lt;/span&gt;(&lt;span class=&quot;pl-c1&quot; style=&quot;color: rgb(0 , 92 , 197)&quot;&gt;9600&lt;/span&gt;); &lt;span class=&quot;pl-c&quot; style=&quot;color: rgb(106 , 115 , 125)&quot;&gt;&lt;span class=&quot;pl-c&quot; style=&quot;color: rgb(106 , 115 , 125)&quot;&gt;//&lt;/span&gt; Communication rate of the Bluetooth Module&lt;/span&gt;&lt;/td&gt;&lt;/tr&gt;&lt;tr&gt;&lt;td id=&quot;file-arduino_bluetooth_part2-ino-L9&quot; class=&quot;blob-num js-line-number js-code-nav-line-number js-blob-rnum&quot; style=&quot;position: relative ; width: 13.2031px ; min-width: inherit ; padding: 1px 10px ; font-size: 12px ; line-height: 20px ; text-align: right ; vertical-align: top ; cursor: pointer ; background: rgba(0 , 0 , 0 , 0)&quot;&gt;&lt;/td&gt;&lt;td id=&quot;file-arduino_bluetooth_part2-ino-LC9&quot; class=&quot;blob-code blob-code-inner js-file-line&quot; style=&quot;position: relative ; padding: 1px 10px ; line-height: 20px ; vertical-align: top ; overflow: visible ; font-size: 12px ; overflow-wrap: normal ; text-align: left ; background: rgba(0 , 0 , 0 , 0) ; border: 0px&quot;&gt;  msg = &lt;span class=&quot;pl-s&quot; style=&quot;color: rgb(3 , 47 , 98)&quot;&gt;&lt;span class=&quot;pl-pds&quot; style=&quot;color: rgb(3 , 47 , 98)&quot;&gt;&quot;&lt;/span&gt;&lt;span class=&quot;pl-pds&quot; style=&quot;color: rgb(3 , 47 , 98)&quot;&gt;&quot;&lt;/span&gt;&lt;/span&gt;;&lt;/td&gt;&lt;/tr&gt;&lt;tr style=&quot;background-color: transparent&quot;&gt;&lt;td id=&quot;file-arduino_bluetooth_part2-ino-L10&quot; class=&quot;blob-num js-line-number js-code-nav-line-number js-blob-rnum&quot; style=&quot;position: relative ; width: 13.2031px ; min-width: inherit ; padding: 1px 10px ; font-size: 12px ; line-height: 20px ; text-align: right ; vertical-align: top ; cursor: pointer ; background: rgba(0 , 0 , 0 , 0)&quot;&gt;&lt;/td&gt;&lt;td id=&quot;file-arduino_bluetooth_part2-ino-LC10&quot; class=&quot;blob-code blob-code-inner js-file-line&quot; style=&quot;position: relative ; padding: 1px 10px ; line-height: 20px ; vertical-align: top ; overflow: visible ; font-size: 12px ; overflow-wrap: normal ; text-align: left ; background: rgba(0 , 0 , 0 , 0) ; border: 0px&quot;&gt;}&lt;/td&gt;&lt;/tr&gt;&lt;tr&gt;&lt;td id=&quot;file-arduino_bluetooth_part2-ino-L11&quot; class=&quot;blob-num js-line-number js-code-nav-line-number js-blob-rnum&quot; style=&quot;position: relative ; width: 13.2031px ; min-width: inherit ; padding: 1px 10px ; font-size: 12px ; line-height: 20px ; text-align: right ; vertical-align: top ; cursor: pointer ; background: rgba(0 , 0 , 0 , 0)&quot;&gt;&lt;/td&gt;&lt;td id=&quot;file-arduino_bluetooth_part2-ino-LC11&quot; class=&quot;blob-code blob-code-inner js-file-line&quot; style=&quot;position: relative ; padding: 1px 10px ; line-height: 20px ; vertical-align: top ; overflow: visible ; font-size: 12px ; overflow-wrap: normal ; text-align: left ; background: rgba(0 , 0 , 0 , 0) ; border: 0px&quot;&gt;&lt;br&gt;&lt;/td&gt;&lt;/tr&gt;&lt;tr style=&quot;background-color: transparent&quot;&gt;&lt;td id=&quot;file-arduino_bluetooth_part2-ino-L12&quot; class=&quot;blob-num js-line-number js-code-nav-line-number js-blob-rnum&quot; style=&quot;position: relative ; width: 13.2031px ; min-width: inherit ; padding: 1px 10px ; font-size: 12px ; line-height: 20px ; text-align: right ; vertical-align: top ; cursor: pointer ; background: rgba(0 , 0 , 0 , 0)&quot;&gt;&lt;/td&gt;&lt;td id=&quot;file-arduino_bluetooth_part2-ino-LC12&quot; class=&quot;blob-code blob-code-inner js-file-line&quot; style=&quot;position: relative ; padding: 1px 10px ; line-height: 20px ; vertical-align: top ; overflow: visible ; font-size: 12px ; overflow-wrap: normal ; text-align: left ; background: rgba(0 , 0 , 0 , 0) ; border: 0px&quot;&gt;&lt;span class=&quot;pl-k&quot; style=&quot;color: rgb(215 , 58 , 73)&quot;&gt;void&lt;/span&gt; &lt;span class=&quot;pl-en&quot; style=&quot;color: rgb(111 , 66 , 193)&quot;&gt;loop&lt;/span&gt;() {&lt;/td&gt;&lt;/tr&gt;&lt;tr&gt;&lt;td id=&quot;file-arduino_bluetooth_part2-ino-L13&quot; class=&quot;blob-num js-line-number js-code-nav-line-number js-blob-rnum&quot; style=&quot;position: relative ; width: 13.2031px ; min-width: inherit ; padding: 1px 10px ; font-size: 12px ; line-height: 20px ; text-align: right ; vertical-align: top ; cursor: pointer ; background: rgba(0 , 0 , 0 , 0)&quot;&gt;&lt;/td&gt;&lt;td id=&quot;file-arduino_bluetooth_part2-ino-LC13&quot; class=&quot;blob-code blob-code-inner js-file-line&quot; style=&quot;position: relative ; padding: 1px 10px ; line-height: 20px ; vertical-align: top ; overflow: visible ; font-size: 12px ; overflow-wrap: normal ; text-align: left ; background: rgba(0 , 0 , 0 , 0) ; border: 0px&quot;&gt;  &lt;/td&gt;&lt;/tr&gt;&lt;tr style=&quot;background-color: transparent&quot;&gt;&lt;td id=&quot;file-arduino_bluetooth_part2-ino-L14&quot; class=&quot;blob-num js-line-number js-code-nav-line-number js-blob-rnum&quot; style=&quot;position: relative ; width: 13.2031px ; min-width: inherit ; padding: 1px 10px ; font-size: 12px ; line-height: 20px ; text-align: right ; vertical-align: top ; cursor: pointer ; background: rgba(0 , 0 , 0 , 0)&quot;&gt;&lt;/td&gt;&lt;td id=&quot;file-arduino_bluetooth_part2-ino-LC14&quot; class=&quot;blob-code blob-code-inner js-file-line&quot; style=&quot;position: relative ; padding: 1px 10px ; line-height: 20px ; vertical-align: top ; overflow: visible ; font-size: 12px ; overflow-wrap: normal ; text-align: left ; background: rgba(0 , 0 , 0 , 0) ; border: 0px&quot;&gt;  &lt;span class=&quot;pl-c&quot; style=&quot;color: rgb(106 , 115 , 125)&quot;&gt;&lt;span class=&quot;pl-c&quot; style=&quot;color: rgb(106 , 115 , 125)&quot;&gt;//&lt;/span&gt; To read message received from other Bluetooth Device&lt;/span&gt;&lt;/td&gt;&lt;/tr&gt;&lt;tr&gt;&lt;td id=&quot;file-arduino_bluetooth_part2-ino-L15&quot; class=&quot;blob-num js-line-number js-code-nav-line-number js-blob-rnum&quot; style=&quot;position: relative ; width: 13.2031px ; min-width: inherit ; padding: 1px 10px ; font-size: 12px ; line-height: 20px ; text-align: right ; vertical-align: top ; cursor: pointer ; background: rgba(0 , 0 , 0 , 0)&quot;&gt;&lt;/td&gt;&lt;td id=&quot;file-arduino_bluetooth_part2-ino-LC15&quot; class=&quot;blob-code blob-code-inner js-file-line&quot; style=&quot;position: relative ; padding: 1px 10px ; line-height: 20px ; vertical-align: top ; overflow: visible ; font-size: 12px ; overflow-wrap: normal ; text-align: left ; background: rgba(0 , 0 , 0 , 0) ; border: 0px&quot;&gt;  &lt;span class=&quot;pl-k&quot; style=&quot;color: rgb(215 , 58 , 73)&quot;&gt;if&lt;/span&gt; (Serial.&lt;span class=&quot;pl-c1&quot; style=&quot;color: rgb(0 , 92 , 197)&quot;&gt;available&lt;/span&gt;() &amp;gt; &lt;span class=&quot;pl-c1&quot; style=&quot;color: rgb(0 , 92 , 197)&quot;&gt;0&lt;/span&gt;){ &lt;span class=&quot;pl-c&quot; style=&quot;color: rgb(106 , 115 , 125)&quot;&gt;&lt;span class=&quot;pl-c&quot; style=&quot;color: rgb(106 , 115 , 125)&quot;&gt;//&lt;/span&gt; Check if there is data coming&lt;/span&gt;&lt;/td&gt;&lt;/tr&gt;&lt;tr style=&quot;background-color: transparent&quot;&gt;&lt;td id=&quot;file-arduino_bluetooth_part2-ino-L16&quot; class=&quot;blob-num js-line-number js-code-nav-line-number js-blob-rnum&quot; style=&quot;position: relative ; width: 13.2031px ; min-width: inherit ; padding: 1px 10px ; font-size: 12px ; line-height: 20px ; text-align: right ; vertical-align: top ; cursor: pointer ; background: rgba(0 , 0 , 0 , 0)&quot;&gt;&lt;/td&gt;&lt;td id=&quot;file-arduino_bluetooth_part2-ino-LC16&quot; class=&quot;blob-code blob-code-inner js-file-line&quot; style=&quot;position: relative ; padding: 1px 10px ; line-height: 20px ; vertical-align: top ; overflow: visible ; font-size: 12px ; overflow-wrap: normal ; text-align: left ; background: rgba(0 , 0 , 0 , 0) ; border: 0px&quot;&gt;    msg = Serial.&lt;span class=&quot;pl-c1&quot; style=&quot;color: rgb(0 , 92 , 197)&quot;&gt;readString&lt;/span&gt;(); &lt;span class=&quot;pl-c&quot; style=&quot;color: rgb(106 , 115 , 125)&quot;&gt;&lt;span class=&quot;pl-c&quot; style=&quot;color: rgb(106 , 115 , 125)&quot;&gt;//&lt;/span&gt; Read the message as String&lt;/span&gt;&lt;/td&gt;&lt;/tr&gt;&lt;tr&gt;&lt;td id=&quot;file-arduino_bluetooth_part2-ino-L17&quot; class=&quot;blob-num js-line-number js-code-nav-line-number js-blob-rnum&quot; style=&quot;position: relative ; width: 13.2031px ; min-width: inherit ; padding: 1px 10px ; font-size: 12px ; line-height: 20px ; text-align: right ; vertical-align: top ; cursor: pointer ; background: rgba(0 , 0 , 0 , 0)&quot;&gt;&lt;/td&gt;&lt;td id=&quot;file-arduino_bluetooth_part2-ino-LC17&quot; class=&quot;blob-code blob-code-inner js-file-line&quot; style=&quot;position: relative ; padding: 1px 10px ; line-height: 20px ; vertical-align: top ; overflow: visible ; font-size: 12px ; overflow-wrap: normal ; text-align: left ; background: rgba(0 , 0 , 0 , 0) ; border: 0px&quot;&gt;    Serial.&lt;span class=&quot;pl-c1&quot; style=&quot;color: rgb(0 , 92 , 197)&quot;&gt;println&lt;/span&gt;(&lt;span class=&quot;pl-s&quot; style=&quot;color: rgb(3 , 47 , 98)&quot;&gt;&lt;span class=&quot;pl-pds&quot; style=&quot;color: rgb(3 , 47 , 98)&quot;&gt;&quot;&lt;/span&gt;Android Command: &lt;span class=&quot;pl-pds&quot; style=&quot;color: rgb(3 , 47 , 98)&quot;&gt;&quot;&lt;/span&gt;&lt;/span&gt; + msg);&lt;/td&gt;&lt;/tr&gt;&lt;tr style=&quot;background-color: transparent&quot;&gt;&lt;td id=&quot;file-arduino_bluetooth_part2-ino-L18&quot; class=&quot;blob-num js-line-number js-code-nav-line-number js-blob-rnum&quot; style=&quot;position: relative ; width: 13.2031px ; min-width: inherit ; padding: 1px 10px ; font-size: 12px ; line-height: 20px ; text-align: right ; vertical-align: top ; cursor: pointer ; background: rgba(0 , 0 , 0 , 0)&quot;&gt;&lt;/td&gt;&lt;td id=&quot;file-arduino_bluetooth_part2-ino-LC18&quot; class=&quot;blob-code blob-code-inner js-file-line&quot; style=&quot;position: relative ; padding: 1px 10px ; line-height: 20px ; vertical-align: top ; overflow: visible ; font-size: 12px ; overflow-wrap: normal ; text-align: left ; background: rgba(0 , 0 , 0 , 0) ; border: 0px&quot;&gt;  }&lt;/td&gt;&lt;/tr&gt;&lt;tr&gt;&lt;td id=&quot;file-arduino_bluetooth_part2-ino-L19&quot; class=&quot;blob-num js-line-number js-code-nav-line-number js-blob-rnum&quot; style=&quot;position: relative ; width: 13.2031px ; min-width: inherit ; padding: 1px 10px ; font-size: 12px ; line-height: 20px ; text-align: right ; vertical-align: top ; cursor: pointer ; background: rgba(0 , 0 , 0 , 0)&quot;&gt;&lt;/td&gt;&lt;td id=&quot;file-arduino_bluetooth_part2-ino-LC19&quot; class=&quot;blob-code blob-code-inner js-file-line&quot; style=&quot;position: relative ; padding: 1px 10px ; line-height: 20px ; vertical-align: top ; overflow: visible ; font-size: 12px ; overflow-wrap: normal ; text-align: left ; background: rgba(0 , 0 , 0 , 0) ; border: 0px&quot;&gt;&lt;br&gt;&lt;/td&gt;&lt;/tr&gt;&lt;tr style=&quot;background-color: transparent&quot;&gt;&lt;td id=&quot;file-arduino_bluetooth_part2-ino-L20&quot; class=&quot;blob-num js-line-number js-code-nav-line-number js-blob-rnum&quot; style=&quot;position: relative ; width: 13.2031px ; min-width: inherit ; padding: 1px 10px ; font-size: 12px ; line-height: 20px ; text-align: right ; vertical-align: top ; cursor: pointer ; background: rgba(0 , 0 , 0 , 0)&quot;&gt;&lt;/td&gt;&lt;td id=&quot;file-arduino_bluetooth_part2-ino-LC20&quot; class=&quot;blob-code blob-code-inner js-file-line&quot; style=&quot;position: relative ; padding: 1px 10px ; line-height: 20px ; vertical-align: top ; overflow: visible ; font-size: 12px ; overflow-wrap: normal ; text-align: left ; background: rgba(0 , 0 , 0 , 0) ; border: 0px&quot;&gt;  &lt;span class=&quot;pl-c&quot; style=&quot;color: rgb(106 , 115 , 125)&quot;&gt;&lt;span class=&quot;pl-c&quot; style=&quot;color: rgb(106 , 115 , 125)&quot;&gt;//&lt;/span&gt; Control LED in Arduino board&lt;/span&gt;&lt;/td&gt;&lt;/tr&gt;&lt;tr&gt;&lt;td id=&quot;file-arduino_bluetooth_part2-ino-L21&quot; class=&quot;blob-num js-line-number js-code-nav-line-number js-blob-rnum&quot; style=&quot;position: relative ; width: 13.2031px ; min-width: inherit ; padding: 1px 10px ; font-size: 12px ; line-height: 20px ; text-align: right ; vertical-align: top ; cursor: pointer ; background: rgba(0 , 0 , 0 , 0)&quot;&gt;&lt;/td&gt;&lt;td id=&quot;file-arduino_bluetooth_part2-ino-LC21&quot; class=&quot;blob-code blob-code-inner js-file-line&quot; style=&quot;position: relative ; padding: 1px 10px ; line-height: 20px ; vertical-align: top ; overflow: visible ; font-size: 12px ; overflow-wrap: normal ; text-align: left ; background: rgba(0 , 0 , 0 , 0) ; border: 0px&quot;&gt;  &lt;span class=&quot;pl-k&quot; style=&quot;color: rgb(215 , 58 , 73)&quot;&gt;if&lt;/span&gt; (msg == &lt;span class=&quot;pl-s&quot; style=&quot;color: rgb(3 , 47 , 98)&quot;&gt;&lt;span class=&quot;pl-pds&quot; style=&quot;color: rgb(3 , 47 , 98)&quot;&gt;&quot;&lt;/span&gt;&amp;lt;turn on&amp;gt;&lt;span class=&quot;pl-pds&quot; style=&quot;color: rgb(3 , 47 , 98)&quot;&gt;&quot;&lt;/span&gt;&lt;/span&gt;){&lt;/td&gt;&lt;/tr&gt;&lt;tr style=&quot;background-color: transparent&quot;&gt;&lt;td id=&quot;file-arduino_bluetooth_part2-ino-L22&quot; class=&quot;blob-num js-line-number js-code-nav-line-number js-blob-rnum&quot; style=&quot;position: relative ; width: 13.2031px ; min-width: inherit ; padding: 1px 10px ; font-size: 12px ; line-height: 20px ; text-align: right ; vertical-align: top ; cursor: pointer ; background: rgba(0 , 0 , 0 , 0)&quot;&gt;&lt;/td&gt;&lt;td id=&quot;file-arduino_bluetooth_part2-ino-LC22&quot; class=&quot;blob-code blob-code-inner js-file-line&quot; style=&quot;position: relative ; padding: 1px 10px ; line-height: 20px ; vertical-align: top ; overflow: visible ; font-size: 12px ; overflow-wrap: normal ; text-align: left ; background: rgba(0 , 0 , 0 , 0) ; border: 0px&quot;&gt;    &lt;span class=&quot;pl-c1&quot; style=&quot;color: rgb(0 , 92 , 197)&quot;&gt;digitalWrite&lt;/span&gt;(ledPin, HIGH); &lt;span class=&quot;pl-c&quot; style=&quot;color: rgb(106 , 115 , 125)&quot;&gt;&lt;span class=&quot;pl-c&quot; style=&quot;color: rgb(106 , 115 , 125)&quot;&gt;//&lt;/span&gt; Turn on LED&lt;/span&gt;&lt;/td&gt;&lt;/tr&gt;&lt;tr&gt;&lt;td id=&quot;file-arduino_bluetooth_part2-ino-L23&quot; class=&quot;blob-num js-line-number js-code-nav-line-number js-blob-rnum&quot; style=&quot;position: relative ; width: 13.2031px ; min-width: inherit ; padding: 1px 10px ; font-size: 12px ; line-height: 20px ; text-align: right ; vertical-align: top ; cursor: pointer ; background: rgba(0 , 0 , 0 , 0)&quot;&gt;&lt;/td&gt;&lt;td id=&quot;file-arduino_bluetooth_part2-ino-LC23&quot; class=&quot;blob-code blob-code-inner js-file-line&quot; style=&quot;position: relative ; padding: 1px 10px ; line-height: 20px ; vertical-align: top ; overflow: visible ; font-size: 12px ; overflow-wrap: normal ; text-align: left ; background: rgba(0 , 0 , 0 , 0) ; border: 0px&quot;&gt;    Serial.&lt;span class=&quot;pl-c1&quot; style=&quot;color: rgb(0 , 92 , 197)&quot;&gt;println&lt;/span&gt;(&lt;span class=&quot;pl-s&quot; style=&quot;color: rgb(3 , 47 , 98)&quot;&gt;&lt;span class=&quot;pl-pds&quot; style=&quot;color: rgb(3 , 47 , 98)&quot;&gt;&quot;&lt;/span&gt;LED is turned on&lt;span class=&quot;pl-cce&quot;&gt;\n&lt;/span&gt;&lt;span class=&quot;pl-pds&quot; style=&quot;color: rgb(3 , 47 , 98)&quot;&gt;&quot;&lt;/span&gt;&lt;/span&gt;); &lt;span class=&quot;pl-c&quot; style=&quot;color: rgb(106 , 115 , 125)&quot;&gt;&lt;span class=&quot;pl-c&quot; style=&quot;color: rgb(106 , 115 , 125)&quot;&gt;//&lt;/span&gt; Then send status message to Android&lt;/span&gt;&lt;/td&gt;&lt;/tr&gt;&lt;tr style=&quot;background-color: transparent&quot;&gt;&lt;td id=&quot;file-arduino_bluetooth_part2-ino-L24&quot; class=&quot;blob-num js-line-number js-code-nav-line-number js-blob-rnum&quot; style=&quot;position: relative ; width: 13.2031px ; min-width: inherit ; padding: 1px 10px ; font-size: 12px ; line-height: 20px ; text-align: right ; vertical-align: top ; cursor: pointer ; background: rgba(0 , 0 , 0 , 0)&quot;&gt;&lt;/td&gt;&lt;td id=&quot;file-arduino_bluetooth_part2-ino-LC24&quot; class=&quot;blob-code blob-code-inner js-file-line&quot; style=&quot;position: relative ; padding: 1px 10px ; line-height: 20px ; vertical-align: top ; overflow: visible ; font-size: 12px ; overflow-wrap: normal ; text-align: left ; background: rgba(0 , 0 , 0 , 0) ; border: 0px&quot;&gt;    msg = &lt;span class=&quot;pl-s&quot; style=&quot;color: rgb(3 , 47 , 98)&quot;&gt;&lt;span class=&quot;pl-pds&quot; style=&quot;color: rgb(3 , 47 , 98)&quot;&gt;&quot;&lt;/span&gt;&lt;span class=&quot;pl-pds&quot; style=&quot;color: rgb(3 , 47 , 98)&quot;&gt;&quot;&lt;/span&gt;&lt;/span&gt;; &lt;span class=&quot;pl-c&quot; style=&quot;color: rgb(106 , 115 , 125)&quot;&gt;&lt;span class=&quot;pl-c&quot; style=&quot;color: rgb(106 , 115 , 125)&quot;&gt;//&lt;/span&gt; reset command&lt;/span&gt;&lt;/td&gt;&lt;/tr&gt;&lt;tr&gt;&lt;td id=&quot;file-arduino_bluetooth_part2-ino-L25&quot; class=&quot;blob-num js-line-number js-code-nav-line-number js-blob-rnum&quot; style=&quot;position: relative ; width: 13.2031px ; min-width: inherit ; padding: 1px 10px ; font-size: 12px ; line-height: 20px ; text-align: right ; vertical-align: top ; cursor: pointer ; background: rgba(0 , 0 , 0 , 0)&quot;&gt;&lt;/td&gt;&lt;td id=&quot;file-arduino_bluetooth_part2-ino-LC25&quot; class=&quot;blob-code blob-code-inner js-file-line&quot; style=&quot;position: relative ; padding: 1px 10px ; line-height: 20px ; vertical-align: top ; overflow: visible ; font-size: 12px ; overflow-wrap: normal ; text-align: left ; background: rgba(0 , 0 , 0 , 0) ; border: 0px&quot;&gt;  } &lt;span class=&quot;pl-k&quot; style=&quot;color: rgb(215 , 58 , 73)&quot;&gt;else&lt;/span&gt; {&lt;/td&gt;&lt;/tr&gt;&lt;tr style=&quot;background-color: transparent&quot;&gt;&lt;td id=&quot;file-arduino_bluetooth_part2-ino-L26&quot; class=&quot;blob-num js-line-number js-code-nav-line-number js-blob-rnum&quot; style=&quot;position: relative ; width: 13.2031px ; min-width: inherit ; padding: 1px 10px ; font-size: 12px ; line-height: 20px ; text-align: right ; vertical-align: top ; cursor: pointer ; background: rgba(0 , 0 , 0 , 0)&quot;&gt;&lt;/td&gt;&lt;td id=&quot;file-arduino_bluetooth_part2-ino-LC26&quot; class=&quot;blob-code blob-code-inner js-file-line&quot; style=&quot;position: relative ; padding: 1px 10px ; line-height: 20px ; vertical-align: top ; overflow: visible ; font-size: 12px ; overflow-wrap: normal ; text-align: left ; background: rgba(0 , 0 , 0 , 0) ; border: 0px&quot;&gt;    &lt;span class=&quot;pl-k&quot; style=&quot;color: rgb(215 , 58 , 73)&quot;&gt;if&lt;/span&gt; (msg == &lt;span class=&quot;pl-s&quot; style=&quot;color: rgb(3 , 47 , 98)&quot;&gt;&lt;span class=&quot;pl-pds&quot; style=&quot;color: rgb(3 , 47 , 98)&quot;&gt;&quot;&lt;/span&gt;&amp;lt;turn off&amp;gt;&lt;span class=&quot;pl-pds&quot; style=&quot;color: rgb(3 , 47 , 98)&quot;&gt;&quot;&lt;/span&gt;&lt;/span&gt;){&lt;/td&gt;&lt;/tr&gt;&lt;tr&gt;&lt;td id=&quot;file-arduino_bluetooth_part2-ino-L27&quot; class=&quot;blob-num js-line-number js-code-nav-line-number js-blob-rnum&quot; style=&quot;position: relative ; width: 13.2031px ; min-width: inherit ; padding: 1px 10px ; font-size: 12px ; line-height: 20px ; text-align: right ; vertical-align: top ; cursor: pointer ; background: rgba(0 , 0 , 0 , 0)&quot;&gt;&lt;/td&gt;&lt;td id=&quot;file-arduino_bluetooth_part2-ino-LC27&quot; class=&quot;blob-code blob-code-inner js-file-line&quot; style=&quot;position: relative ; padding: 1px 10px ; line-height: 20px ; vertical-align: top ; overflow: visible ; font-size: 12px ; overflow-wrap: normal ; text-align: left ; background: rgba(0 , 0 , 0 , 0) ; border: 0px&quot;&gt;      &lt;span class=&quot;pl-c1&quot; style=&quot;color: rgb(0 , 92 , 197)&quot;&gt;digitalWrite&lt;/span&gt;(ledPin, LOW); &lt;span class=&quot;pl-c&quot; style=&quot;color: rgb(106 , 115 , 125)&quot;&gt;&lt;span class=&quot;pl-c&quot; style=&quot;color: rgb(106 , 115 , 125)&quot;&gt;//&lt;/span&gt; Turn off LED&lt;/span&gt;&lt;/td&gt;&lt;/tr&gt;&lt;tr style=&quot;background-color: transparent&quot;&gt;&lt;td id=&quot;file-arduino_bluetooth_part2-ino-L28&quot; class=&quot;blob-num js-line-number js-code-nav-line-number js-blob-rnum&quot; style=&quot;position: relative ; width: 13.2031px ; min-width: inherit ; padding: 1px 10px ; font-size: 12px ; line-height: 20px ; text-align: right ; vertical-align: top ; cursor: pointer ; background: rgba(0 , 0 , 0 , 0)&quot;&gt;&lt;/td&gt;&lt;td id=&quot;file-arduino_bluetooth_part2-ino-LC28&quot; class=&quot;blob-code blob-code-inner js-file-line&quot; style=&quot;position: relative ; padding: 1px 10px ; line-height: 20px ; vertical-align: top ; overflow: visible ; font-size: 12px ; overflow-wrap: normal ; text-align: left ; background: rgba(0 , 0 , 0 , 0) ; border: 0px&quot;&gt;      Serial.&lt;span class=&quot;pl-c1&quot; style=&quot;color: rgb(0 , 92 , 197)&quot;&gt;println&lt;/span&gt;(&lt;span class=&quot;pl-s&quot; style=&quot;color: rgb(3 , 47 , 98)&quot;&gt;&lt;span class=&quot;pl-pds&quot; style=&quot;color: rgb(3 , 47 , 98)&quot;&gt;&quot;&lt;/span&gt;LED is turned off&lt;span class=&quot;pl-cce&quot;&gt;\n&lt;/span&gt;&lt;span class=&quot;pl-pds&quot; style=&quot;color: rgb(3 , 47 , 98)&quot;&gt;&quot;&lt;/span&gt;&lt;/span&gt;); &lt;span class=&quot;pl-c&quot; style=&quot;color: rgb(106 , 115 , 125)&quot;&gt;&lt;span class=&quot;pl-c&quot; style=&quot;color: rgb(106 , 115 , 125)&quot;&gt;//&lt;/span&gt; Then send status message to Android&lt;/span&gt;&lt;/td&gt;&lt;/tr&gt;&lt;tr&gt;&lt;td id=&quot;file-arduino_bluetooth_part2-ino-L29&quot; class=&quot;blob-num js-line-number js-code-nav-line-number js-blob-rnum&quot; style=&quot;position: relative ; width: 13.2031px ; min-width: inherit ; padding: 1px 10px ; font-size: 12px ; line-height: 20px ; text-align: right ; vertical-align: top ; cursor: pointer ; background: rgba(0 , 0 , 0 , 0)&quot;&gt;&lt;/td&gt;&lt;td id=&quot;file-arduino_bluetooth_part2-ino-LC29&quot; class=&quot;blob-code blob-code-inner js-file-line&quot; style=&quot;position: relative ; padding: 1px 10px ; line-height: 20px ; vertical-align: top ; overflow: visible ; font-size: 12px ; overflow-wrap: normal ; text-align: left ; background: rgba(0 , 0 , 0 , 0) ; border: 0px&quot;&gt;      msg = &lt;span class=&quot;pl-s&quot; style=&quot;color: rgb(3 , 47 , 98)&quot;&gt;&lt;span class=&quot;pl-pds&quot; style=&quot;color: rgb(3 , 47 , 98)&quot;&gt;&quot;&lt;/span&gt;&lt;span class=&quot;pl-pds&quot; style=&quot;color: rgb(3 , 47 , 98)&quot;&gt;&quot;&lt;/span&gt;&lt;/span&gt;; &lt;span class=&quot;pl-c&quot; style=&quot;color: rgb(106 , 115 , 125)&quot;&gt;&lt;span class=&quot;pl-c&quot; style=&quot;color: rgb(106 , 115 , 125)&quot;&gt;//&lt;/span&gt; reset command&lt;/span&gt;&lt;/td&gt;&lt;/tr&gt;&lt;tr style=&quot;background-color: transparent&quot;&gt;&lt;td id=&quot;file-arduino_bluetooth_part2-ino-L30&quot; class=&quot;blob-num js-line-number js-code-nav-line-number js-blob-rnum&quot; style=&quot;position: relative ; width: 13.2031px ; min-width: inherit ; padding: 1px 10px ; font-size: 12px ; line-height: 20px ; text-align: right ; vertical-align: top ; cursor: pointer ; background: rgba(0 , 0 , 0 , 0)&quot;&gt;&lt;/td&gt;&lt;td id=&quot;file-arduino_bluetooth_part2-ino-LC30&quot; class=&quot;blob-code blob-code-inner js-file-line&quot; style=&quot;position: relative ; padding: 1px 10px ; line-height: 20px ; vertical-align: top ; overflow: visible ; font-size: 12px ; overflow-wrap: normal ; text-align: left ; background: rgba(0 , 0 , 0 , 0) ; border: 0px&quot;&gt;    }&lt;/td&gt;&lt;/tr&gt;&lt;tr&gt;&lt;td id=&quot;file-arduino_bluetooth_part2-ino-L31&quot; class=&quot;blob-num js-line-number js-code-nav-line-number js-blob-rnum&quot; style=&quot;position: relative ; width: 13.2031px ; min-width: inherit ; padding: 1px 10px ; font-size: 12px ; line-height: 20px ; text-align: right ; vertical-align: top ; cursor: pointer ; background: rgba(0 , 0 , 0 , 0)&quot;&gt;&lt;/td&gt;&lt;td id=&quot;file-arduino_bluetooth_part2-ino-LC31&quot; class=&quot;blob-code blob-code-inner js-file-line&quot; style=&quot;position: relative ; padding: 1px 10px ; line-height: 20px ; vertical-align: top ; overflow: visible ; font-size: 12px ; overflow-wrap: normal ; text-align: left ; background: rgba(0 , 0 , 0 , 0) ; border: 0px&quot;&gt;  }&lt;/td&gt;&lt;/tr&gt;&lt;tr style=&quot;background-color: transparent&quot;&gt;&lt;td id=&quot;file-arduino_bluetooth_part2-ino-L32&quot; class=&quot;blob-num js-line-number js-code-nav-line-number js-blob-rnum&quot; style=&quot;position: relative ; width: 13.2031px ; min-width: inherit ; padding: 1px 10px ; font-size: 12px ; line-height: 20px ; text-align: right ; vertical-align: top ; cursor: pointer ; background: rgba(0 , 0 , 0 , 0)&quot;&gt;&lt;/td&gt;&lt;td id=&quot;file-arduino_bluetooth_part2-ino-LC32&quot; class=&quot;blob-code blob-code-inner js-file-line&quot; style=&quot;position: relative ; padding: 1px 10px ; line-height: 20px ; vertical-align: top ; overflow: visible ; font-size: 12px ; overflow-wrap: normal ; text-align: left ; background: rgba(0 , 0 , 0 , 0) ; border: 0px&quot;&gt;}&lt;/td&gt;&lt;/tr&gt;&lt;/tbody&gt;&lt;/table&gt;" style="text;html=1;align=center;verticalAlign=middle;resizable=0;points=[];autosize=1;strokeColor=none;fillColor=none;fontSize=14;fontFamily=Times New Roman;" vertex="1" parent="5-9y21-28eGrgCkgJ4F6-130">
          <mxGeometry x="-10" y="100" width="440" height="740" as="geometry" />
        </mxCell>
        <mxCell id="5-9y21-28eGrgCkgJ4F6-133" value="" style="swimlane;startSize=0;fontFamily=Times New Roman;fontSize=14;" vertex="1" parent="1">
          <mxGeometry x="870" y="430" width="450" height="740" as="geometry" />
        </mxCell>
        <mxCell id="5-9y21-28eGrgCkgJ4F6-134" value="https://medium.com/swlh/create-custom-android-app-to-control-arduino-board-using-bluetooth-ff878e998aa8" style="rounded=1;whiteSpace=wrap;html=1;fontFamily=Times New Roman;fontSize=14;" vertex="1" parent="1">
          <mxGeometry x="900" y="30" width="350" height="60" as="geometry" />
        </mxCell>
        <mxCell id="5-9y21-28eGrgCkgJ4F6-135" value="https://ncd.io/iot-arduino-wireless-temperature-humidity-sensor/" style="rounded=1;whiteSpace=wrap;html=1;fontFamily=Times New Roman;fontSize=14;" vertex="1" parent="1">
          <mxGeometry x="1270" y="30" width="230" height="60" as="geometry" />
        </mxCell>
      </root>
    </mxGraphModel>
  </diagram>
</mxfile>
